<?xml version="1.0" standalone="no"?>
<!DOCTYPE svg PUBLIC "-//W3C//DTD SVG 20010904//EN"
 "http://www.w3.org/TR/2001/REC-SVG-20010904/DTD/svg10.dtd">
<svg version="1.0" xmlns="http://www.w3.org/2000/svg"
 width="1024.000000pt" height="1024.000000pt" viewBox="0 0 1024.000000 1024.000000"
 preserveAspectRatio="xMidYMid meet">

<g transform="translate(0.000000,1024.000000) scale(0.100000,-0.100000)"
fill="#000000" stroke="none">
<path d="M5371 9992 c-6 -22 -8 -47 -5 -56 3 -9 2 -16 -4 -16 -10 0 -38 -117
-30 -125 2 -2 10 24 18 58 13 60 14 61 20 27 4 -27 7 -13 12 55 4 49 6 91 3
93 -2 2 -9 -14 -14 -36z"/>
<path  d="M7289 9948 c-14 -27 -158 -250 -324 -502 -66 -100 -187 -267 -267
-372 -81 -104 -159 -205 -173 -224 l-27 -35 31 33 c29 30 51 41 51 25 -1 -14
-60 -73 -73 -73 -19 0 -36 -20 -30 -36 7 -19 199 163 265 251 116 156 143 192
180 232 21 24 38 52 38 63 0 12 9 40 21 63 l20 42 -38 -41 c-21 -23 -53 -61
-70 -84 -18 -24 -33 -41 -33 -38 0 12 251 394 268 408 10 9 17 22 14 30 -3 11
-1 12 7 4 13 -12 4 -47 -10 -38 -5 3 -6 -1 -3 -9 3 -8 -1 -21 -8 -28 -8 -8
-20 -34 -27 -59 -7 -25 -37 -99 -66 -165 -29 -66 -62 -147 -74 -180 -12 -33
-28 -65 -36 -70 -14 -11 -40 -94 -32 -102 3 -2 -13 -55 -34 -116 -21 -62 -38
-116 -38 -122 1 -18 39 76 90 220 45 128 129 343 209 535 17 41 67 149 111
239 44 90 78 166 75 168 -2 3 -10 -6 -17 -19z m-488 -795 c-4 -16 -16 -30 -25
-31 -12 -3 -17 1 -13 10 2 7 11 12 18 10 8 -2 11 0 7 4 -4 4 -3 13 3 21 16 19
18 16 10 -14z"/>
<path d="M3070 9925 c0 -3 19 -42 41 -88 106 -211 462 -760 397 -611 -14 32
-105 192 -121 212 -7 9 -12 10 -17 2 -9 -14 -47 45 -110 168 -12 23 -26 45
-31 48 -5 3 -9 10 -9 17 0 6 11 -5 25 -25 14 -20 25 -41 25 -46 0 -5 7 -15 16
-23 8 -7 26 -34 40 -60 13 -26 29 -51 35 -55 15 -9 18 -15 -66 123 -37 62 -71
111 -75 108 -4 -3 -14 3 -21 13 -13 15 -12 16 4 3 25 -19 21 -6 -11 42 -15 23
-46 72 -68 109 -34 58 -54 82 -54 63z m343 -549 c30 -48 37 -71 9 -35 -32 43
-53 79 -45 79 5 0 20 -20 36 -44z"/>
<path d="M1420 9884 c0 -13 115 -157 250 -315 118 -137 400 -429 480 -496 l45
-37 -53 59 c-29 33 -106 123 -171 200 -159 188 -500 565 -528 583 -13 8 -23
10 -23 6z"/>
<path d="M4210 9840 c0 -47 158 -492 202 -565 29 -48 21 -16 -36 157 -56 165
-165 436 -166 408z"/>
<path d="M6551 9792 c-34 -83 -102 -285 -97 -290 16 -15 134 308 124 339 -2 5
-14 -17 -27 -49z"/>
<path d="M5362 9810 c0 -19 2 -27 5 -17 2 9 2 25 0 35 -3 9 -5 1 -5 -18z"/>
<path d="M5322 9750 c0 -19 2 -27 5 -17 2 9 2 25 0 35 -3 9 -5 1 -5 -18z"/>
<path d="M3690 9754 c0 -6 13 -55 29 -110 16 -54 36 -124 44 -154 8 -30 16
-45 16 -33 1 12 -4 34 -9 49 -9 24 -9 25 5 14 8 -7 15 -17 15 -22 0 -5 9 -28
19 -51 61 -135 101 -239 101 -262 0 -14 4 -23 10 -20 11 7 25 -39 16 -54 -4
-5 -2 -12 4 -16 22 -14 8 46 -36 150 -25 61 -52 126 -59 145 -7 19 -34 85 -60
145 -26 61 -54 133 -62 160 -14 48 -33 81 -33 59z"/>
<path d="M9315 9673 c-145 -153 -536 -601 -619 -708 -44 -58 -13 -25 96 101
225 260 381 435 385 431 7 -8 -45 -73 -323 -408 -217 -261 -363 -423 -372
-415 -2 3 9 22 24 43 15 21 19 29 7 18 -11 -11 -41 -51 -68 -90 l-48 -70 87
85 c87 84 304 330 464 524 46 56 110 134 144 174 33 40 86 106 117 146 31 39
85 107 121 150 36 43 69 84 73 92 19 33 -14 6 -88 -73z m-75 -106 c0 -2 -10
-12 -22 -23 l-23 -19 19 23 c18 21 26 27 26 19z m-40 -51 c0 -3 -4 -8 -10 -11
-5 -3 -10 -1 -10 4 0 6 5 11 10 11 6 0 10 -2 10 -4z"/>
<path d="M856 9588 c141 -145 211 -230 294 -353 58 -88 126 -182 295 -410 61
-82 150 -204 198 -270 47 -66 98 -133 112 -150 l26 -30 -72 -32 c-39 -18 -77
-33 -83 -33 -6 -1 -60 -24 -119 -53 l-108 -52 -147 -227 c-81 -125 -187 -286
-237 -358 -102 -149 -103 -154 -64 -296 35 -130 171 -427 314 -685 25 -45 45
-85 45 -90 0 -9 -815 -279 -843 -279 -9 0 -17 -2 -17 -6 0 -13 208 -303 464
-647 86 -115 115 -162 107 -170 -8 -8 -3 -14 17 -22 40 -18 251 -310 399 -555
173 -285 286 -466 300 -477 8 -6 10 -13 6 -16 -5 -3 -38 15 -74 39 -35 25 -86
57 -114 71 -27 14 -69 39 -92 54 -23 16 -48 29 -55 29 -7 0 -46 16 -86 35 -39
18 -89 37 -109 41 -37 7 -35 5 44 -57 65 -51 81 -68 78 -85 -4 -19 -93 -165
-244 -404 -37 -58 -83 -132 -101 -165 -19 -33 -62 -103 -96 -156 -97 -151 -95
-135 -22 -168 77 -34 281 -107 326 -116 35 -7 42 -22 15 -31 -56 -17 -254 -97
-259 -105 -7 -12 21 -12 44 0 9 5 51 20 92 32 41 12 103 34 137 47 l63 26 72
-23 c108 -32 355 -81 414 -81 53 0 165 24 292 62 65 19 71 23 50 32 -20 8 -21
10 -5 13 10 3 24 -1 32 -7 14 -12 59 -4 51 8 -2 4 9 7 24 8 35 1 90 23 90 35
0 19 -106 0 -237 -42 -38 -12 -43 -29 -10 -30 18 -1 17 -2 -8 -10 -16 -5 -43
-11 -60 -13 -16 -3 -38 -8 -47 -11 -31 -12 -19 4 15 20 30 14 30 15 5 10 -16
-3 -28 -2 -28 3 0 8 76 74 189 164 29 24 66 54 82 66 l28 24 30 -49 c63 -104
82 -131 150 -223 72 -97 94 -135 105 -181 l6 -26 -88 -7 c-217 -16 -267 -24
-347 -56 -177 -71 -396 -192 -416 -230 -54 -106 -149 -352 -254 -660 -35 -102
-107 -311 -161 -465 -93 -269 -143 -427 -144 -451 0 -7 55 -61 122 -120 449
-400 749 -625 836 -626 52 0 171 17 452 67 527 94 843 139 1155 165 312 26
532 40 704 47 177 6 183 6 178 -13 -17 -56 -58 -280 -54 -303 3 -22 8 -16 36
44 38 80 91 230 91 257 0 17 17 18 299 18 l299 0 25 -69 c35 -93 88 -201 99
-201 14 0 -4 94 -49 252 -5 16 3 18 73 18 99 0 456 -16 674 -30 588 -39 1105
-107 1705 -225 154 -30 288 -55 298 -55 11 0 146 41 300 91 155 50 380 122
500 161 200 64 217 71 211 90 -21 67 -52 174 -151 523 -105 373 -241 797 -343
1070 -27 72 -69 186 -93 255 -131 363 -149 408 -172 418 -13 6 -106 20 -207
32 -160 18 -268 35 -358 55 -22 5 -21 4 5 -9 17 -8 88 -39 158 -68 70 -29 123
-54 118 -56 -24 -8 -351 130 -351 148 0 5 -17 13 -39 16 -21 3 -42 9 -48 13
-17 11 -62 252 -63 332 l0 36 68 -19 c98 -28 237 -33 355 -14 55 9 108 21 119
27 15 8 53 0 176 -39 216 -68 388 -113 407 -106 8 3 15 2 15 -3 0 -9 90 -37
97 -30 2 3 -15 12 -39 22 -24 9 -56 23 -73 30 -16 8 -79 33 -140 55 -60 23
-134 52 -165 64 -63 26 -124 43 -100 27 8 -6 62 -27 120 -47 58 -21 107 -40
110 -44 3 -3 38 -17 78 -30 40 -12 75 -27 78 -31 3 -5 -6 -5 -21 1 -14 5 -53
16 -88 24 -77 18 -314 92 -345 108 -30 16 -22 33 14 31 16 -1 21 1 12 3 -30 9
-21 20 47 59 112 66 239 207 313 350 42 80 86 210 108 320 21 105 26 406 7
466 l-11 37 37 -5 c20 -2 47 0 61 6 20 8 16 9 -25 5 -61 -7 -62 -6 -100 95
-20 53 -30 69 -37 60 -7 -10 -8 -8 -4 6 7 23 -52 129 -69 127 -5 0 -20 9 -33
21 l-23 22 5 -28 c2 -14 7 -31 11 -37 9 -14 32 -13 38 3 3 6 6 -1 7 -18 1 -25
3 -27 9 -10 8 19 8 19 20 -4 7 -13 8 -21 3 -17 -6 3 -16 4 -24 1 -11 -5 -8
-18 14 -65 27 -55 41 -67 72 -61 5 1 4 -4 -3 -12 -8 -11 -9 -22 -1 -43 10 -28
9 -28 -6 -9 -16 19 -16 18 -10 -15 21 -105 26 -155 26 -255 0 -109 -29 -328
-50 -376 -12 -27 -11 -19 16 121 22 115 29 303 15 399 -39 263 -182 466 -412
582 -104 52 -267 96 -407 111 -131 14 -133 15 -152 113 -13 65 -27 455 -16
455 3 0 23 -9 43 -20 21 -11 43 -20 50 -20 27 0 189 85 361 189 172 104 772
541 1102 804 69 54 107 82 84 60 -50 -47 -212 -180 -316 -258 -43 -32 -75 -61
-73 -65 2 -4 -1 -7 -8 -7 -18 0 -67 -33 -67 -46 0 -6 -3 -7 -7 -4 -3 4 -15 0
-25 -9 -25 -24 -6 -49 26 -32 16 8 15 4 -8 -21 -20 -21 -36 -29 -48 -25 -14 4
-18 0 -18 -17 0 -16 3 -19 13 -12 6 5 50 38 97 73 143 108 480 371 570 446 94
78 162 154 204 225 23 41 90 234 175 506 38 123 131 485 131 511 0 16 -42 -2
-242 -105 -278 -143 -468 -249 -485 -272 -6 -9 -15 -13 -18 -9 -7 7 -65 -18
-65 -28 0 -2 9 0 19 6 30 15 38 12 13 -6 -12 -8 -22 -24 -22 -36 0 -18 -5 -20
-49 -16 -36 2 -47 0 -44 -9 3 -7 9 -10 14 -7 21 13 7 -16 -17 -35 -41 -32 -19
-25 54 18 96 55 442 233 442 227 0 -3 -48 -31 -107 -62 -60 -32 -205 -111
-323 -177 -198 -109 -318 -179 -750 -436 -158 -94 -508 -271 -535 -271 -17 0
-18 4 -6 28 15 28 47 134 120 397 39 138 82 288 96 335 13 47 34 121 45 165
12 44 45 170 75 280 29 110 60 229 68 265 111 475 163 685 175 696 7 8 10 19
6 25 -4 7 -1 10 7 7 8 -3 13 -13 13 -22 -1 -9 2 -16 7 -16 5 0 9 -5 9 -11 0
-5 -5 -7 -11 -4 -6 4 -13 -2 -16 -14 -3 -11 -9 -19 -13 -16 -10 6 -23 -62 -15
-75 3 -6 1 -10 -5 -10 -7 0 -9 -7 -6 -17 4 -10 4 -14 0 -10 -8 8 -33 -73 -33
-108 -1 -19 46 71 53 104 11 45 19 62 26 51 4 -6 13 17 20 52 6 35 20 97 31
138 10 41 17 76 15 77 -2 2 -18 -7 -37 -20 -19 -12 -99 -60 -179 -106 -363
-209 -609 -372 -671 -443 -61 -72 -150 -209 -208 -321 -72 -141 -233 -553
-381 -977 -18 -52 -37 -97 -42 -98 -5 -2 0 -18 10 -35 20 -34 52 -133 73 -230
7 -32 16 -60 20 -63 5 -2 13 15 19 38 31 115 238 702 290 823 5 11 23 54 41
95 137 321 262 545 346 615 169 143 204 171 253 206 30 21 75 52 99 69 24 17
45 29 47 27 3 -2 0 -17 -7 -33 -6 -16 -40 -155 -75 -309 -36 -154 -81 -341
-100 -415 -19 -74 -48 -184 -64 -245 -74 -288 -116 -433 -172 -594 -34 -97
-69 -203 -80 -236 -11 -33 -31 -94 -45 -135 -14 -41 -26 -94 -27 -117 0 -23
-5 -46 -11 -52 -26 -25 -131 -81 -153 -81 -35 0 -102 -45 -136 -91 -50 -66
-80 -56 -45 16 27 56 23 65 -11 25 -16 -19 -30 -29 -30 -21 0 8 -15 -5 -32
-29 -18 -24 -43 -55 -56 -68 -13 -13 -21 -26 -18 -29 9 -10 139 16 180 36 23
12 48 21 54 21 15 0 110 47 132 64 8 7 38 21 65 31 28 10 58 25 69 34 17 15
18 15 12 -4 -3 -11 -14 -51 -25 -90 -10 -38 -26 -90 -36 -115 -9 -25 -28 -119
-42 -210 -30 -205 -44 -622 -23 -748 13 -83 66 -248 96 -299 16 -28 22 -31 49
-25 16 4 100 7 185 7 206 0 274 -20 392 -113 113 -88 197 -222 239 -382 27
-104 30 -296 5 -401 -47 -203 -160 -379 -300 -467 -136 -86 -277 -126 -426
-120 -125 5 -184 28 -297 114 -166 127 -285 307 -318 479 -34 178 -2 385 93
595 27 61 33 152 22 360 -11 226 -30 299 -110 435 -90 153 -103 209 -107 480
-1 121 -4 234 -7 252 -3 19 0 34 7 37 8 3 6 10 -7 20 -17 14 -18 22 -6 171 17
208 13 251 -52 504 -21 81 -24 87 -86 145 -35 34 -86 88 -113 122 -44 55 -48
64 -40 92 5 17 24 115 42 219 l32 190 -36 74 c-87 179 -271 406 -442 544 -49
40 -99 81 -110 91 -41 39 -182 152 -227 183 -86 57 -203 64 -401 21 -87 -19
-97 -19 -137 -5 -77 27 -332 93 -406 105 l-71 11 -100 -103 c-55 -57 -124
-130 -153 -163 -80 -91 -92 -95 -303 -111 -267 -21 -247 -14 -308 -114 -28
-47 -87 -151 -129 -232 -43 -81 -91 -163 -106 -184 -34 -44 -337 -283 -376
-296 -13 -5 -63 -293 -84 -478 -19 -172 -22 -627 -4 -795 20 -198 108 -683
129 -710 5 -5 18 -42 29 -81 l22 -71 -21 -74 c-22 -80 -65 -265 -103 -449 -37
-174 -76 -308 -103 -347 -13 -19 -23 -36 -21 -38 2 -1 34 -12 71 -25 81 -26
85 -34 7 -14 -30 8 -65 14 -77 14 -13 0 -23 3 -23 8 0 4 -9 13 -19 19 -17 11
-19 10 -16 -6 2 -12 -2 -18 -13 -17 -9 0 -21 -9 -27 -21 -5 -13 -18 -23 -27
-23 -10 0 -18 -5 -18 -11 0 -6 -8 -9 -18 -7 -12 4 -18 -1 -19 -14 -2 -27 -23
-49 -42 -46 -9 2 -24 -5 -33 -14 -14 -14 -33 -18 -76 -17 -31 1 -48 4 -36 6
17 3 21 12 22 44 2 52 7 59 41 59 37 0 43 8 25 35 -13 20 -13 23 2 29 11 4 14
13 10 29 -8 32 112 153 143 144 16 -4 21 0 21 14 0 10 5 19 11 19 6 0 9 -6 6
-14 -4 -10 2 -16 16 -18 17 -2 23 -11 26 -38 3 -31 5 -32 10 -11 4 14 5 39 3
56 -3 27 -10 34 -39 43 -33 10 -36 9 -104 -50 -89 -76 -181 -186 -219 -262
-41 -80 -39 -93 10 -101 44 -7 76 -4 288 27 101 15 145 19 150 11 8 -12 152
-5 152 7 0 4 -27 19 -59 33 -32 14 -62 31 -67 38 -5 9 -2 10 12 5 10 -5 28
-10 40 -11 12 -2 35 -10 52 -19 17 -9 44 -16 59 -15 l28 1 -27 10 c-16 5 -28
14 -28 18 0 9 62 -14 106 -39 11 -5 64 -24 119 -40 55 -17 131 -46 170 -64
l70 -34 -49 -16 c-52 -18 -79 -15 -31 3 15 6 25 13 22 16 -7 7 -166 -50 -224
-81 -27 -14 -37 -23 -23 -20 33 7 -49 -38 -115 -64 -27 -11 -77 -31 -109 -46
-46 -20 -56 -22 -45 -9 8 9 10 15 4 13 -5 -3 -39 -19 -75 -36 -36 -17 -90 -36
-120 -42 -30 -6 -89 -23 -131 -37 -42 -13 -127 -35 -189 -48 -121 -26 -122
-27 -148 -75 -17 -32 -163 -265 -236 -378 -22 -35 -44 -63 -48 -63 -4 0 -18
22 -31 49 -26 50 -144 224 -270 396 -121 165 -182 257 -528 800 -239 374 -400
607 -608 878 l-221 288 37 15 c20 9 167 58 327 110 160 52 535 176 833 275
297 98 554 179 571 179 23 0 56 -25 173 -133 79 -74 232 -226 339 -338 284
-296 344 -356 335 -334 -14 36 -24 69 -51 170 -15 55 -37 133 -50 174 -13 40
-24 80 -24 89 0 8 -27 65 -59 126 -32 61 -87 174 -121 251 -34 77 -83 181
-109 232 -42 81 -44 89 -22 72 60 -47 249 -226 258 -244 7 -13 9 65 5 235 -7
390 15 602 87 823 21 66 38 98 65 126 20 20 36 42 36 48 0 6 7 13 15 17 18 6
10 57 -14 96 -21 34 -74 104 -84 111 -5 3 -8 10 -8 15 2 18 -69 121 -126 184
-88 97 -196 237 -313 405 -57 83 -124 179 -149 215 -25 36 -97 134 -160 219
-64 85 -137 182 -163 216 -60 81 -79 93 -33 21 19 -30 35 -58 35 -61 0 -17
269 -452 379 -612 31 -45 70 -103 88 -130 17 -26 41 -61 53 -76 30 -37 19 -45
-16 -12 -39 36 -69 50 -132 64 -78 16 -120 14 -235 -13 -102 -25 -403 -121
-422 -136 -5 -4 -35 -15 -65 -25 -30 -10 -61 -22 -67 -27 -7 -6 -33 -12 -58
-13 -27 -2 -55 -11 -66 -21 -10 -9 -21 -15 -22 -13 -2 2 -17 22 -33 44 -79
110 -207 264 -337 410 -22 24 -126 158 -146 189 -10 14 -4 11 17 -9 l33 -30
-17 40 c-16 40 -16 40 56 -30 106 -104 220 -222 280 -290 88 -100 179 -195
186 -195 21 0 -362 413 -553 596 -281 269 -611 564 -630 564 -3 0 52 -60 123
-132z m7551 -320 c-3 -8 -6 -5 -6 6 -1 11 2 17 5 13 3 -3 4 -12 1 -19z m-3202
-388 c136 -29 185 -45 243 -81 17 -11 38 -8 129 19 59 17 137 34 173 38 l65 6
90 -57 c50 -31 115 -77 145 -101 90 -74 334 -306 360 -344 167 -242 195 -301
187 -390 -6 -55 -51 -171 -96 -243 -30 -48 -40 -41 -13 10 32 63 52 135 51
188 0 28 -3 44 -6 37 -11 -28 -76 -45 -171 -43 -52 0 -101 5 -110 11 -14 8
-11 10 13 10 l30 1 -31 17 c-18 9 -41 23 -53 30 -27 17 -27 5 2 -27 20 -23 21
-23 1 -10 -11 8 -44 41 -72 74 -28 33 -81 92 -117 130 -37 39 -91 102 -121
141 -30 40 -81 100 -114 134 -33 34 -60 66 -60 70 0 17 -103 90 -126 90 -13 0
-24 5 -24 11 0 7 -18 31 -40 55 -22 24 -40 37 -40 30 0 -8 14 -26 31 -40 28
-24 30 -31 25 -64 -4 -20 -9 -61 -11 -90 l-5 -53 106 -127 c59 -70 145 -173
193 -230 47 -57 105 -126 129 -153 36 -43 42 -56 43 -97 0 -26 2 -56 5 -67 6
-29 -19 -204 -28 -199 -12 7 -10 86 3 123 14 41 5 88 -24 125 -20 24 -28 27
-54 22 -35 -8 -150 -74 -202 -117 -25 -20 -39 -26 -51 -19 -9 5 -64 50 -121
100 -119 104 -260 222 -313 263 -20 15 -51 50 -68 76 -110 164 -167 240 -233
313 -41 46 -75 89 -75 97 0 17 34 63 110 149 l55 63 55 -6 c33 -3 51 -2 45 3
-6 5 -31 12 -56 15 l-46 6 -78 -90 c-43 -50 -88 -104 -99 -120 -12 -15 -36
-47 -54 -69 -19 -22 -27 -37 -18 -34 9 3 16 1 16 -5 0 -6 -4 -11 -10 -11 -19
0 -10 -22 32 -84 22 -33 108 -162 190 -284 82 -123 188 -275 236 -338 143
-189 172 -245 189 -364 6 -40 5 -44 -9 -32 -9 7 -18 30 -22 52 -6 38 -26 57
-26 25 0 -8 -6 -15 -13 -15 -18 0 -49 -34 -40 -43 3 -4 -1 -7 -10 -7 -10 0
-17 -6 -17 -13 0 -22 -224 -123 -234 -105 -35 59 -75 109 -145 179 -170 169
-357 383 -403 461 -28 46 -89 108 -107 108 -12 0 -12 -3 -3 -12 16 -16 15 -38
0 -38 -7 0 -26 21 -43 48 -16 26 -46 68 -68 93 -21 26 -47 69 -57 97 -18 46
-18 55 -6 90 24 67 46 102 64 102 9 0 24 4 32 10 10 6 4 8 -22 7 -41 -2 -34 8
-105 -152 -55 -125 -75 -198 -63 -230 5 -13 33 -39 62 -58 54 -36 127 -118
233 -262 33 -44 93 -122 135 -174 152 -190 171 -217 216 -299 45 -83 45 -85
38 -150 -4 -36 -10 -77 -14 -91 l-7 -26 -6 25 c-3 14 -8 61 -10 104 -3 61 -8
82 -22 92 -10 7 -23 11 -28 7 -6 -3 -1 -10 11 -14 26 -10 30 -23 4 -15 -20 7
-119 -48 -188 -106 -25 -21 -50 -38 -55 -38 -5 0 -9 -6 -9 -14 0 -18 -33 -29
-61 -21 -21 7 -21 8 7 31 37 30 30 30 -40 -1 -31 -14 -61 -25 -66 -25 -17 0
-133 83 -175 125 -22 22 -62 69 -89 103 -27 35 -67 78 -90 96 -44 36 -185 125
-251 158 -22 11 -42 22 -44 24 -8 7 43 247 56 259 7 8 28 18 46 24 43 12 149
62 144 67 -2 3 -42 -11 -88 -31 -96 -40 -99 -41 -99 -17 0 37 -30 -42 -41
-107 -5 -36 -16 -93 -24 -126 -44 -191 -46 -217 -35 -464 11 -239 14 -268 50
-601 24 -222 61 -423 88 -476 11 -22 43 -66 71 -99 28 -33 98 -114 154 -180
56 -66 121 -138 145 -159 63 -59 51 -66 -15 -8 -32 27 -69 55 -83 62 -24 13
-24 12 -10 -6 19 -24 -75 50 -119 94 -19 19 -52 47 -75 64 -46 33 -99 95 -126
148 -27 54 -89 245 -110 340 -54 246 -95 669 -85 879 3 58 8 156 10 216 7 131
39 329 67 403 13 35 40 75 78 115 48 50 80 71 181 122 l124 61 118 238 c146
291 118 271 363 271 l171 0 68 60 c38 33 124 113 191 177 100 96 128 118 146
114 13 -3 91 -19 173 -36z m-3056 -424 c-10 -9 -242 -97 -246 -93 -3 4 119 54
217 90 18 7 35 8 29 3z m702 -58 c117 -77 209 -166 209 -202 0 -14 19 -60 42
-103 22 -43 50 -96 61 -118 11 -22 30 -53 42 -70 12 -16 20 -36 17 -44 -3 -9
0 -11 8 -6 9 6 11 4 5 -5 -6 -10 -19 -2 -47 31 -169 189 -469 492 -451 455 14
-31 14 -38 -1 -84 -9 -27 -19 -62 -22 -76 -2 -15 -17 -52 -31 -84 -34 -73 -43
-183 -19 -242 22 -54 20 -96 -5 -131 -11 -16 -17 -34 -13 -40 4 -7 3 -9 -3 -6
-5 4 -23 -4 -40 -16 -57 -42 -256 -294 -298 -377 -26 -50 -50 -64 -62 -34 -3
9 -1 26 6 38 10 18 9 18 -8 -3 -20 -22 -23 -23 -86 -12 -35 6 -85 20 -111 31
-59 26 -84 25 -201 -5 -122 -32 -163 -46 -163 -58 0 -5 7 -6 16 -3 9 3 28 8
42 11 22 4 22 3 -5 -7 -48 -19 -59 -33 -42 -54 12 -16 12 -17 -1 -9 -8 5 -34
24 -57 41 -23 18 -57 35 -75 39 -18 4 -77 30 -131 58 -54 27 -114 53 -134 57
-30 7 -35 5 -42 -13 -11 -29 -1 -56 119 -300 56 -115 100 -210 98 -212 -2 -2
-45 78 -96 178 -51 100 -113 218 -137 262 -24 44 -44 90 -44 101 -1 30 58 134
185 324 61 91 126 191 144 223 64 107 79 116 355 217 213 78 501 189 740 285
98 40 127 35 236 -37z m-974 -49 c-28 -16 -93 -42 -84 -33 9 10 79 42 92 43 6
0 2 -4 -8 -10z m-137 -63 c-14 -7 -36 -16 -50 -20 -14 -3 -7 3 15 13 45 22 73
27 35 7z m1010 -100 c0 -3 -4 -8 -10 -11 -5 -3 -10 -1 -10 4 0 6 5 11 10 11 6
0 10 -2 10 -4z m6830 -46 c-19 -11 -39 -19 -45 -19 -5 0 6 8 25 19 19 11 40
19 45 19 6 0 -6 -8 -25 -19z m-5410 -25 c0 -8 -5 -15 -11 -15 -8 0 -10 -20 -7
-60 3 -40 1 -59 -6 -57 -16 5 -19 66 -6 110 11 37 30 51 30 22z m5607 -67 c-3
-8 -6 -5 -6 6 -1 11 2 17 5 13 3 -3 4 -12 1 -19z m-10 -40 c-3 -8 -6 -5 -6 6
-1 11 2 17 5 13 3 -3 4 -12 1 -19z m-203 -75 c-8 -27 -26 -82 -39 -123 -102
-328 -117 -360 -201 -442 -75 -72 -396 -328 -631 -503 -337 -252 -953 -644
-1003 -639 -8 1 -23 2 -34 3 -22 1 -22 8 23 221 17 80 37 208 45 285 9 86 23
162 35 195 20 53 24 56 89 85 157 70 747 393 869 476 23 16 128 77 235 135
106 59 212 120 236 136 24 17 105 62 180 100 75 39 151 81 167 94 17 13 33 23
37 24 4 0 0 -21 -8 -47z m140 -137 c-10 -31 -19 -54 -22 -52 -2 2 4 29 14 60
10 31 19 54 22 52 2 -2 -4 -29 -14 -60z m-6960 -116 c43 -46 58 -69 37 -56 -5
4 -11 0 -14 -6 -3 -7 -13 6 -23 29 -11 23 -29 48 -41 54 -13 7 -23 16 -23 21
0 18 20 5 64 -42z m6906 -55 c-12 -36 -24 -65 -26 -63 -2 2 6 34 18 71 12 36
24 65 26 62 2 -2 -6 -34 -18 -70z m-7010 32 c0 -2 -16 -19 -37 -38 -37 -35
-37 -23 0 19 18 19 37 29 37 19z m163 -101 c4 4 7 2 7 -4 0 -24 -17 -17 -50
22 l-34 41 35 -33 c19 -18 38 -29 42 -26z m45 5 c15 -21 34 -57 42 -80 7 -22
18 -41 24 -41 7 0 18 -8 26 -17 37 -44 72 -93 74 -105 3 -22 62 -101 111 -148
52 -51 91 -108 80 -118 -4 -4 -15 4 -24 18 -9 13 -65 80 -126 149 -60 68 -141
162 -178 208 -60 74 -68 88 -62 113 4 19 3 30 -4 30 -6 0 -11 7 -11 15 0 26
19 17 48 -24z m87 -31 c10 -11 16 -20 13 -20 -3 0 -13 9 -23 20 -10 11 -16 20
-13 20 3 0 13 -9 23 -20z m3684 5 c16 -8 40 -28 55 -45 39 -47 106 -195 121
-269 40 -195 42 -250 13 -305 -20 -37 -127 -196 -133 -196 -7 0 7 33 26 60 35
51 51 135 44 228 -10 135 -72 309 -118 333 l-22 12 21 -24 c66 -73 73 -141 25
-219 -28 -45 -34 -64 -32 -102 l2 -48 -29 6 c-19 4 -38 0 -53 -9 -20 -13 -50
-15 -193 -10 -140 5 -166 8 -151 19 9 7 14 17 10 23 -3 6 0 11 8 11 8 0 22 9
32 20 23 26 9 26 -33 0 -27 -17 -33 -18 -38 -5 -5 13 40 64 59 65 13 0 7 60
-9 86 -15 22 -15 24 0 18 25 -10 20 20 -11 69 -16 23 -31 44 -35 45 -18 8 -6
21 28 32 48 16 39 22 -14 8 -35 -9 -46 -8 -60 4 -9 8 -25 18 -34 21 -10 4 -18
13 -18 22 0 8 -8 15 -17 15 -29 1 37 26 128 50 46 12 117 35 157 51 41 16 92
29 115 30 23 0 51 4 62 9 31 13 63 12 94 -5z m2992 -12 c-12 -20 -14 -14 -5
12 4 9 9 14 11 11 3 -2 0 -13 -6 -23z m-3854 1 c-3 -3 -12 -4 -19 -1 -8 3 -5
6 6 6 11 1 17 -2 13 -5z m-32 -25 c-4 -5 -15 -9 -26 -9 -10 0 -19 -4 -19 -9 0
-13 -70 -53 -84 -47 -6 2 -2 5 9 5 14 1 16 4 7 10 -17 10 6 30 62 52 41 17 61
16 51 -2z m3866 -36 c-12 -20 -14 -14 -5 12 4 9 9 14 11 11 3 -2 0 -13 -6 -23z
m-6511 -97 c97 -99 157 -173 148 -182 -3 -2 -26 17 -51 43 -26 27 -56 57 -68
68 -11 11 -39 45 -62 75 -23 30 -53 65 -67 77 -14 12 -20 22 -13 23 7 0 58
-47 113 -104z m6491 51 c-10 -9 -11 -8 -5 6 3 10 9 15 12 12 3 -3 0 -11 -7
-18z m-11 -21 c0 -2 -8 -10 -17 -17 -16 -13 -17 -12 -4 4 13 16 21 21 21 13z
m-3512 -45 c2 -18 19 -58 39 -88 47 -73 73 -132 73 -166 0 -31 -32 -55 -115
-86 -60 -22 -138 -37 -115 -22 12 8 9 12 -17 17 -25 5 -34 14 -47 48 -20 50
-84 124 -110 128 -26 4 -48 -37 -43 -77 3 -16 10 -57 17 -89 11 -54 10 -61 -6
-73 -9 -7 -21 -10 -26 -7 -11 7 -6 36 7 47 6 5 1 7 -10 5 -16 -3 -20 -11 -20
-40 -1 -21 -4 -40 -8 -44 -7 -8 -10 12 -8 61 0 17 1 68 2 115 2 143 46 247
122 287 24 12 49 14 116 10 48 -3 95 -2 106 3 30 13 40 7 43 -29z m-635 -94
c-10 -17 -20 13 -14 46 l5 32 7 -35 c4 -19 5 -38 2 -43z m-2842 -100 c181
-179 309 -320 309 -339 0 -8 12 -25 26 -39 14 -13 30 -33 36 -44 5 -11 -19 11
-54 50 -108 120 -319 346 -400 430 -68 69 -88 95 -75 95 2 0 73 -69 158 -153z
m6863 102 c-10 -12 -41 -39 -69 -61 -40 -32 -36 -27 15 21 66 61 89 78 54 40z
m-5399 -59 c21 -22 37 -40 34 -40 -3 0 -23 18 -44 40 -21 22 -37 40 -34 40 3
0 23 -18 44 -40z m-1655 -99 c86 -72 90 -76 55 -58 -29 15 -80 56 -154 126
l-36 33 35 -23 c19 -13 64 -48 100 -78z m-1026 52 c9 -18 14 -33 12 -33 -6 0
-36 55 -36 66 0 11 5 3 24 -33z m3613 -50 c-3 -10 -5 -2 -5 17 0 19 2 27 5 18
2 -10 2 -26 0 -35z m813 -3 c11 -7 7 -10 -18 -10 -20 0 -31 4 -27 10 8 13 26
13 45 0z m-813 -62 c-3 -8 -6 -5 -6 6 -1 11 2 17 5 13 3 -3 4 -12 1 -19z
m-1743 -14 c5 -14 4 -15 -9 -4 -17 14 -19 20 -6 20 5 0 12 -7 15 -16z m646 -6
c0 -19 -2 -20 -10 -8 -13 19 -13 30 0 30 6 0 10 -10 10 -22z m1508 -15 c-1
-38 -1 -38 -5 -5 -2 18 -9 30 -14 27 -5 -4 -9 -1 -9 4 0 6 7 11 15 11 11 0 15
-10 13 -37z m-411 -170 c-2 -21 -4 -4 -4 37 0 41 2 58 4 38 2 -21 2 -55 0 -75z
m900 -41 c22 -27 24 -27 140 -26 73 1 142 7 181 18 35 9 72 16 83 16 10 0 19
4 19 8 0 5 -21 5 -47 1 -74 -12 -81 -10 -45 12 21 14 43 20 62 17 16 -3 28 -2
25 1 -9 9 56 31 89 30 l31 -1 -34 -10 c-25 -7 -31 -12 -21 -18 8 -5 18 -6 22
-4 4 3 5 -1 2 -9 -3 -8 -17 -20 -32 -28 l-27 -13 40 -6 40 -6 -55 -12 c-106
-25 -246 -42 -341 -42 l-96 0 -26 39 c-15 22 -37 46 -50 53 -14 7 -47 25 -76
41 -77 41 -61 42 22 1 39 -19 82 -48 94 -62z m-1110 36 c-2 -13 -4 -5 -4 17
-1 22 1 32 4 23 2 -10 2 -28 0 -40z m1945 3 c-11 -21 -18 -42 -15 -45 6 -6
-21 -10 -40 -7 -4 1 -24 -11 -44 -26 l-37 -28 24 32 c13 18 41 45 62 60 22 14
44 35 49 46 6 10 13 16 16 13 3 -3 -4 -23 -15 -45z m-4791 22 c13 -16 12 -17
-3 -4 -10 7 -18 15 -18 17 0 8 8 3 21 -13z m2389 -20 c-4 -21 -19 -63 -34 -94
-23 -49 -26 -66 -22 -120 3 -35 5 -68 6 -72 0 -5 5 -5 10 -2 6 4 7 12 4 18 -4
7 -4 9 0 5 4 -3 8 -10 8 -15 0 -21 22 -45 58 -63 45 -23 54 -25 44 -9 -5 8 -1
8 14 0 23 -12 86 -16 122 -7 14 3 7 -3 -15 -14 -22 -11 -33 -20 -24 -20 17 0
101 41 137 66 12 9 22 14 22 12 0 -3 -28 -25 -62 -49 -55 -38 -68 -43 -111
-41 -52 2 -85 16 -159 66 -43 29 -89 85 -71 87 4 0 -2 4 -15 10 -26 10 -26 22
5 129 16 52 17 54 23 25 6 -28 7 -26 14 19 6 38 39 106 52 106 1 0 -2 -17 -6
-37z m2190 -12 c-44 -28 -103 -52 -87 -35 10 10 108 60 122 62 6 1 -10 -11
-35 -27z m-2574 -19 c13 -8 23 -74 30 -187 2 -44 9 -93 15 -108 14 -33 5 -47
-11 -17 -6 11 -15 72 -19 135 -8 125 -20 163 -22 69 l-1 -59 -13 40 c-8 22
-14 58 -14 81 -1 51 9 64 35 46z m1406 -23 c-19 -17 -37 -27 -40 -24 -8 8 44
55 61 55 7 0 -3 -14 -21 -31z m-96 -64 c-20 -15 -36 -19 -36 -10 0 5 38 23 50
24 3 0 -4 -6 -14 -14z m1424 -45 c-6 -11 -13 -20 -16 -20 -2 0 0 9 6 20 6 11
13 20 16 20 2 0 0 -9 -6 -20z m-32 -27 c-14 -31 -52 -83 -60 -83 -10 0 -6 8
26 57 11 18 25 33 29 33 5 0 7 -3 5 -7z m-83 -69 c-26 -34 -61 -121 -53 -130
3 -2 24 16 47 41 22 24 41 40 41 34 0 -17 -125 -137 -230 -221 -52 -42 -123
-101 -158 -132 -34 -30 -87 -74 -116 -96 -30 -22 -57 -44 -61 -50 -3 -6 -11
-8 -16 -4 -6 3 -41 -13 -79 -35 -38 -23 -73 -41 -78 -41 -5 0 -26 -11 -46 -25
-20 -13 -76 -34 -125 -45 -74 -18 -94 -19 -113 -9 -25 14 -134 22 -306 23 -92
1 -109 3 -95 14 9 6 24 12 33 12 9 0 20 4 25 9 23 21 160 53 290 66 77 8 165
22 196 30 68 18 222 97 264 135 17 15 53 42 80 60 66 44 247 193 361 297 50
45 93 81 96 78 2 -3 18 9 34 26 23 24 30 27 32 14 2 -9 -8 -32 -23 -51z m83
16 c-22 -30 -35 -41 -22 -17 9 16 36 47 41 47 2 0 -6 -13 -19 -30z m238 -32
c-3 -13 -6 -32 -6 -43 0 -13 -13 -26 -38 -37 -47 -22 -213 -159 -352 -290
-325 -307 -334 -316 -243 -216 82 89 372 363 507 478 60 51 111 101 113 111 3
11 10 19 15 19 6 0 8 -10 4 -22z m-2247 -22 c-2 -2 -15 -9 -29 -15 -24 -11
-24 -11 -6 3 16 13 49 24 35 12z m-1374 -106 c10 -11 14 -20 9 -20 -5 0 -15 9
-22 20 -7 11 -11 20 -9 20 2 0 12 -9 22 -20z m805 -34 c0 -5 10 -20 22 -33 12
-13 19 -26 15 -29 -7 -7 -67 84 -67 100 1 14 30 -24 30 -38z m974 -204 c0
-145 -10 -257 -24 -280 -9 -14 -10 -12 -7 12 l5 28 -30 -33 c-16 -19 -40 -54
-53 -79 -27 -51 -45 -70 -130 -138 -33 -26 -94 -80 -135 -120 l-77 -72 -32 16
c-18 9 -43 14 -57 11 -13 -2 -24 0 -24 4 0 5 5 9 10 9 6 0 25 16 42 36 17 19
50 45 72 56 75 38 126 79 165 132 22 29 45 59 53 67 7 8 42 71 77 142 56 112
64 134 64 185 0 45 6 68 30 110 41 74 51 58 51 -86z m1803 -74 c-3 -7 -5 -2
-5 12 0 14 2 19 5 13 2 -7 2 -19 0 -25z m-74 -15 c-13 -2 -33 -2 -45 0 -13 2
-3 4 22 4 25 0 35 -2 23 -4z m84 -50 c-3 -10 -5 -4 -5 12 0 17 2 24 5 18 2 -7
2 -21 0 -30z m-2386 -26 c10 -18 6 -17 -20 7 -36 34 -39 41 -11 26 11 -6 25
-20 31 -33z m2331 -97 c20 -41 40 -89 43 -105 3 -17 15 -41 26 -55 l19 -25
-10 29 c-14 38 -7 43 14 10 32 -48 27 -17 -8 52 -19 38 -38 80 -41 94 -4 14 9
-4 27 -40 19 -36 57 -108 85 -160 72 -134 94 -215 90 -332 -2 -77 -7 -101 -26
-133 -13 -22 -55 -94 -94 -160 -61 -105 -117 -187 -151 -220 -11 -11 4 11 50
76 17 24 65 103 107 175 l76 132 -3 121 c-2 84 0 121 8 121 8 0 8 2 0 8 -7 4
-14 16 -17 27 -4 17 -5 16 -6 -5 -2 -18 -9 -7 -27 40 -14 36 -30 69 -36 75 -8
7 -9 4 -3 -10 53 -142 65 -190 65 -257 0 -78 -9 -102 -107 -273 -105 -184
-146 -245 -165 -245 -5 0 1 13 15 29 19 24 24 39 22 73 -4 61 -4 62 -18 49 -8
-6 -18 -7 -23 -3 -5 4 -6 3 -2 -1 11 -15 -78 -110 -128 -135 -18 -9 -81 -49
-138 -89 -89 -60 -114 -73 -161 -78 -68 -9 -171 10 -180 33 -4 12 -33 -12
-112 -93 -59 -61 -97 -95 -84 -77 39 56 184 204 190 193 10 -15 109 -51 141
-51 54 0 124 32 224 103 134 95 168 127 225 213 93 138 110 185 118 310 5 96
3 123 -17 200 -40 157 -65 184 -171 184 -68 0 -210 -25 -330 -58 -36 -10 -117
-47 -180 -82 -62 -35 -136 -75 -163 -89 -44 -23 -49 -30 -51 -61 -1 -19 -16
-75 -34 -125 -17 -49 -47 -151 -66 -225 -20 -74 -40 -150 -46 -168 -6 -19 -9
-35 -7 -37 2 -2 24 15 48 39 107 101 251 228 255 224 5 -5 -344 -340 -401
-385 l-40 -31 -2 41 c-1 23 9 74 23 112 13 39 40 147 60 240 105 494 115 533
152 583 19 25 31 32 51 30 26 -3 27 -5 23 -62 l-3 -60 35 31 c36 31 257 180
337 226 44 25 232 94 334 122 28 8 74 13 101 12 l50 -2 37 -75z m-805 53 c-9
-10 -31 -26 -49 -37 -33 -18 -33 -18 6 18 40 37 72 50 43 19z m-1487 -14 c0
-6 -4 -7 -10 -4 -5 3 -10 11 -10 16 0 6 5 7 10 4 6 -3 10 -11 10 -16z m-220
-19 c6 -11 8 -20 6 -20 -3 0 -10 9 -16 20 -6 11 -8 20 -6 20 3 0 10 -9 16 -20z
m-50 -20 c0 -5 -5 -10 -11 -10 -5 0 -7 5 -4 10 3 6 8 10 11 10 2 0 4 -4 4 -10z
m1670 -5 c0 -3 -27 -19 -61 -35 -34 -17 -58 -26 -54 -20 4 7 31 23 59 36 59
26 56 25 56 19z m-1573 -32 c-9 -9 -20 -13 -24 -9 -4 4 -1 11 7 16 25 16 35
11 17 -7z m-47 -23 c-8 -5 -17 -7 -19 -4 -3 3 1 9 9 14 8 5 17 7 19 4 3 -3 -1
-9 -9 -14z m701 -23 c-10 -9 -11 -8 -5 6 3 10 9 15 12 12 3 -3 0 -11 -7 -18z
m212 16 c-7 -2 -19 -2 -25 0 -7 3 -2 5 12 5 14 0 19 -2 13 -5z m562 -13 c-7
-11 -119 -70 -132 -70 -4 0 24 18 62 39 83 46 78 43 70 31z m-1495 -17 c0 -3
-57 -33 -62 -33 -2 0 -4 8 -4 18 0 14 8 18 33 18 18 0 33 -1 33 -3z m725 -173
c-3 -5 -14 -10 -23 -10 -15 0 -15 2 -2 10 20 13 33 13 25 0z m-76 -34 c-2 -2
-20 -11 -39 -20 l-35 -17 25 20 c14 11 31 21 39 21 8 0 12 -2 10 -4z m519 -25
c17 -1 32 -5 32 -11 0 -13 -91 -57 -150 -74 -25 -7 -71 -25 -103 -40 -79 -36
-70 -16 32 66 74 60 87 66 120 63 20 -2 51 -4 69 -4z m-1704 -25 c-5 -20 -1
-24 25 -29 28 -6 31 -10 31 -42 0 -20 -11 -91 -25 -158 -27 -133 -55 -322 -55
-373 0 -23 10 -42 40 -72 35 -37 37 -40 12 -30 -15 7 -41 22 -58 34 -17 13
-43 26 -57 29 -15 4 -29 15 -32 26 -14 42 65 508 100 597 19 46 29 56 19 18z
m451 -81 l30 -25 -37 21 c-21 11 -38 23 -38 25 0 10 17 2 45 -21z m1353 -342
c-43 -170 -89 -363 -103 -430 -27 -131 -46 -196 -76 -255 -11 -21 -19 -43 -19
-50 0 -7 -10 -24 -21 -38 -12 -14 -19 -18 -16 -10 2 8 12 38 20 65 14 43 46
173 61 243 6 31 -1 27 -19 -10 -13 -29 -15 -30 -10 -6 3 14 7 34 10 45 3 10
-4 0 -15 -22 -11 -22 -45 -118 -76 -212 -30 -95 -59 -175 -63 -177 -9 -6 -5
12 35 174 14 58 32 132 39 165 25 110 56 196 106 297 28 55 48 102 46 104 -2
3 -36 -33 -76 -78 -39 -46 -135 -144 -212 -218 -78 -74 -152 -150 -165 -170
-12 -19 -49 -62 -80 -95 l-57 -60 28 50 c15 28 34 57 41 66 8 8 14 19 14 23 0
9 83 120 121 161 15 17 35 44 46 61 27 47 130 190 183 254 25 30 61 77 80 105
19 27 54 73 78 103 23 29 42 57 42 62 0 13 123 160 134 160 1 0 -33 -138 -76
-307z m-419 105 c-7 -13 -27 -41 -45 -64 -18 -22 -38 -51 -43 -65 -8 -21 -10
-21 -10 -4 -1 31 34 99 65 129 35 32 49 34 33 4z m1014 -8 c-9 -16 -21 -30
-25 -30 -5 0 1 14 14 30 12 17 23 30 25 30 2 0 -4 -13 -14 -30z m-43 -53 c0
-2 -10 -12 -22 -23 l-23 -19 19 23 c18 21 26 27 26 19z m-1325 -36 c-4 -9 -11
-28 -17 -43 -5 -15 -14 -26 -20 -25 -6 1 -14 -11 -19 -26 -7 -25 -6 -27 9 -15
14 11 15 11 7 -7 -4 -11 -19 -58 -32 -105 -13 -47 -31 -110 -40 -140 -9 -30
-17 -66 -18 -80 -7 -86 -80 -378 -92 -367 -3 4 22 133 33 168 2 9 -2 24 -11
32 -14 14 -13 21 10 71 14 30 25 62 25 70 0 8 4 25 9 38 5 13 23 70 40 128 18
58 36 118 41 134 13 40 4 47 -12 10 -19 -43 -149 -263 -159 -270 -5 -3 -9 8
-9 25 0 16 -2 36 -5 43 -3 8 14 43 38 79 24 35 70 114 102 174 31 61 59 112
60 115 2 3 17 5 35 6 25 1 30 -2 25 -15z m1408 -108 c-13 -2 -33 -2 -45 0 -13
2 -3 4 22 4 25 0 35 -2 23 -4z m97 -13 c0 -5 -7 -7 -15 -4 -8 4 -15 8 -15 10
0 2 7 4 15 4 8 0 15 -4 15 -10z m130 -10 l25 -8 -25 -2 c-25 -2 -31 -2 -51 3
-24 5 -19 -21 7 -38 27 -17 28 -17 46 5 10 13 20 21 22 19 3 -2 -7 -17 -20
-32 l-24 -28 -29 23 c-16 13 -34 33 -40 46 -10 21 -9 22 27 21 20 -1 48 -5 62
-9z m-2109 -27 c-12 -20 -14 -14 -5 12 4 9 9 14 11 11 3 -2 0 -13 -6 -23z
m2172 20 c-7 -2 -19 -2 -25 0 -7 3 -2 5 12 5 14 0 19 -2 13 -5z m-3406 -138
c0 -8 -4 -12 -9 -9 -8 5 -11 -5 -10 -41 1 -16 0 -16 -4 -3 -4 11 -11 15 -22
11 -15 -6 -16 -5 -2 13 12 15 39 41 46 44 0 0 1 -7 1 -15z m3623 -58 c-11 -18
-36 -48 -57 -67 -20 -19 -31 -26 -23 -15 23 31 93 115 96 115 2 0 -5 -15 -16
-33z m-3697 -34 c-7 -3 -9 -12 -6 -21 4 -13 3 -14 -6 -6 -14 13 -3 47 12 37 8
-5 8 -8 0 -10z m1177 -3 c0 -5 -2 -10 -4 -10 -3 0 -8 5 -11 10 -3 6 -1 10 4
10 6 0 11 -4 11 -10z m83 -38 c-3 -12 -9 -22 -14 -22 -12 0 -11 7 2 32 13 25
20 19 12 -10z m-1302 -25 c-10 -9 -11 -8 -5 6 3 10 9 15 12 12 3 -3 0 -11 -7
-18z m3519 -7 c0 -6 -32 -26 -71 -45 -40 -19 -86 -45 -103 -58 -17 -13 -42
-27 -56 -31 -52 -15 -156 -76 -128 -76 8 0 29 11 47 24 19 14 48 28 65 32 17
3 57 22 89 42 31 19 60 33 62 30 7 -6 -102 -73 -135 -83 -14 -4 -84 -41 -156
-81 -72 -41 -136 -74 -142 -74 -6 0 -55 -29 -108 -65 -80 -54 -104 -65 -138
-65 -30 0 -37 3 -26 10 8 5 29 10 45 10 17 0 38 7 48 14 16 13 12 14 -34 14
-28 1 -53 3 -55 5 -3 3 24 19 60 38 55 28 68 40 85 79 12 26 36 59 53 76 26
22 28 23 12 4 -23 -27 -38 -54 -54 -94 -13 -36 3 -34 76 10 32 20 97 56 144
82 80 43 100 55 169 110 16 12 33 22 37 22 5 0 0 -7 -10 -15 -17 -13 -17 -15
-4 -15 9 0 19 4 22 9 4 5 25 18 49 29 23 11 67 31 97 45 66 31 60 29 60 17z
m124 -31 c-10 -12 -59 -53 -109 -92 -103 -80 -95 -69 26 37 81 72 123 99 83
55z m-1014 -18 c-5 -11 -15 -23 -22 -27 -7 -5 -8 -2 -3 7 21 37 44 55 25 20z
m1043 -66 c-21 -25 -49 -53 -63 -62 -14 -8 2 12 35 46 33 33 61 61 63 61 2 0
-14 -20 -35 -45z m317 -56 c0 -92 17 -218 32 -236 12 -15 25 -14 -149 -19 -88
-2 -144 0 -148 6 -4 6 32 51 78 102 47 50 105 122 128 159 24 37 47 68 52 68
4 1 7 -35 7 -80z m-2674 -89 c-40 -115 -60 -155 -82 -164 -26 -10 -304 -5
-304 5 0 5 33 25 73 45 111 56 206 112 276 165 36 27 66 47 67 46 2 -1 -12
-45 -30 -97z m245 88 c3 -27 -3 -54 -15 -73 -7 -11 -15 -29 -19 -40 -3 -11
-13 -38 -21 -60 l-15 -40 -1 51 c0 29 8 71 19 95 10 24 21 52 24 62 7 20 26
23 28 5z m-721 -23 c-14 -8 -29 -14 -35 -14 -5 0 1 6 15 14 14 8 30 14 35 14
6 0 -1 -6 -15 -14z m2698 -52 c-27 -27 -46 -40 -44 -30 2 17 78 88 86 81 2 -3
-17 -26 -42 -51z m-1084 -26 c-2 -7 -14 -18 -25 -25 -22 -14 -21 -6 4 26 12
16 28 16 21 -1z m1026 -20 c0 -2 -13 -15 -28 -30 l-28 -27 0 24 c0 17 5 22 17
19 9 -3 20 0 23 6 7 10 16 15 16 8z m-75 -47 c-3 -5 -12 -10 -18 -10 -7 0 -6
4 3 10 19 12 23 12 15 0z m-1939 -91 l-16 -23 0 25 c0 30 10 43 23 30 6 -6 3
-18 -7 -32z m-2801 -31 c93 -94 217 -248 291 -360 l73 -110 -77 -74 c-42 -40
-85 -73 -95 -74 -18 0 -114 16 -267 45 -102 19 -234 35 -296 35 -28 0 -53 3
-57 6 -3 3 37 70 90 148 142 210 273 414 273 426 0 18 12 10 65 -42z m6979
-27 c-15 -34 -28 -60 -30 -58 -2 2 8 31 23 65 14 34 28 60 30 58 2 -2 -8 -31
-23 -65z m-4039 49 c3 -5 -3 -10 -15 -10 -12 0 -18 5 -15 10 3 6 10 10 15 10
5 0 12 -4 15 -10z m682 -6 c-3 -3 -12 -4 -19 -1 -8 3 -5 6 6 6 11 1 17 -2 13
-5z m3281 -184 c-21 -38 -79 -113 -61 -80 19 35 75 120 79 120 3 0 -6 -18 -18
-40z m-1546 -29 l98 -8 99 -94 99 -94 1 -68 c1 -37 6 -111 12 -165 l11 -97
-31 -26 c-17 -14 -31 -29 -31 -33 0 -14 91 -165 138 -227 26 -35 55 -76 65
-91 l17 -28 -167 1 -168 0 -67 132 -66 132 -47 3 -46 3 6 -48 c8 -50 30 -162
41 -200 l6 -23 -156 0 -156 0 0 33 c0 64 -40 347 -85 592 -24 138 -47 265 -50
283 l-6 32 193 0 c106 -1 237 -5 290 -9z m-2312 -6 c0 -3 -28 -49 -61 -103
-34 -53 -115 -185 -179 -292 l-117 -195 -8 -167 -7 -168 -125 0 -126 0 6 43
c4 23 12 115 18 203 l12 161 -120 229 c-67 126 -124 239 -128 252 l-7 23 142
-3 142 -3 65 -151 65 -152 69 135 c38 75 79 149 90 164 l20 29 125 0 c68 0
124 -2 124 -5z m724 -25 c21 -12 51 -41 67 -63 l29 -40 0 -247 c0 -226 -2
-249 -17 -256 -10 -4 -114 -10 -231 -12 l-213 -4 3 -139 3 -139 -134 0 -133 0
6 68 c3 37 7 246 8 466 l3 399 286 -5 c278 -4 287 -5 323 -28z m990 -52 c4
-46 9 -91 12 -100 5 -17 -10 -18 -226 -18 l-232 0 7 -67 c4 -38 9 -70 11 -73
1 -3 83 -7 180 -7 206 -2 188 10 197 -125 l6 -88 -186 0 -186 0 7 -52 c3 -29
6 -66 6 -81 l0 -28 223 2 222 2 12 -79 c6 -43 12 -91 12 -106 l1 -28 -359 0
-358 0 -7 123 c-9 153 -55 719 -63 770 l-6 37 360 0 360 0 7 -82z m-2634 69
c0 -2 -15 -82 -34 -178 -68 -341 -106 -589 -106 -684 l0 -55 -140 0 c-77 0
-140 1 -140 3 0 2 12 60 26 128 14 68 28 145 31 170 l5 45 -138 -4 c-77 -2
-140 -6 -142 -7 -2 -2 -18 -77 -36 -167 l-33 -163 -143 -3 -142 -3 7 28 c4 15
29 140 56 276 27 137 69 328 94 424 25 96 45 177 45 179 0 2 61 4 136 4 116 0
135 -2 130 -15 -3 -8 -21 -76 -41 -152 -20 -76 -38 -146 -41 -155 -5 -16 5
-18 108 -18 62 0 129 3 149 6 l36 6 7 82 c4 44 14 120 23 169 l16 87 133 0
c74 0 134 -1 134 -3z m4710 -60 c0 -2 -12 -14 -27 -28 l-28 -24 24 28 c23 25
31 32 31 24z m-105 -107 c-16 -16 -32 -30 -37 -30 -8 0 53 59 61 60 3 0 -8
-13 -24 -30z m-145 -100 c-8 -5 -19 -10 -25 -10 -5 0 -3 5 5 10 8 5 20 10 25
10 6 0 3 -5 -5 -10z m-6803 -256 c-3 -3 -12 -4 -19 -1 -8 3 -5 6 6 6 11 1 17
-2 13 -5z m933 -18 c0 -2 -11 -6 -25 -8 -13 -3 -22 -1 -19 3 5 9 44 13 44 5z
m-190 -56 c0 -5 -4 -10 -10 -10 -5 0 -10 5 -10 10 0 6 5 10 10 10 6 0 10 -4
10 -10z m-180 -44 c0 -2 -7 -7 -16 -10 -8 -3 -12 -2 -9 4 6 10 25 14 25 6z
m5680 -122 c0 -8 -5 -12 -10 -9 -6 4 -8 11 -5 16 9 14 15 11 15 -7z m-4639
-406 l52 -52 -6 -90 c-6 -100 -44 -337 -56 -349 -8 -8 -372 -59 -379 -52 -2 2
1 19 7 37 9 29 41 200 41 221 0 5 -4 6 -9 2 -5 -3 -56 -12 -113 -19 -220 -30
-258 -38 -267 -55 -10 -19 -240 -731 -272 -843 -13 -43 -21 -79 -18 -82 2 -2
58 5 124 15 66 11 170 26 230 35 61 9 111 17 112 18 2 2 12 47 23 101 11 54
21 100 23 101 7 7 418 36 424 30 4 -3 -2 -64 -12 -134 -10 -70 -20 -151 -23
-179 l-4 -53 -142 -113 -143 -113 -199 -32 c-109 -18 -298 -49 -418 -69 l-219
-37 -115 118 -115 118 10 42 c35 146 189 661 294 988 l80 247 50 45 c43 39
186 125 274 164 19 9 101 17 225 23 107 5 202 11 210 13 8 2 74 4 147 5 l132
1 52 -52z m4399 35 c3 -3 17 -57 32 -121 14 -64 41 -181 60 -258 l33 -141 89
-7 c49 -3 152 -6 228 -6 l140 0 -7 33 c-8 37 -113 354 -149 451 l-25 66 189 0
188 0 32 -87 c138 -383 297 -874 415 -1287 58 -203 108 -372 111 -377 3 -5 -3
-9 -13 -9 -24 0 -427 42 -431 45 -2 2 -29 106 -62 231 -32 126 -70 270 -85
319 -15 50 -34 115 -42 146 l-15 57 -231 4 c-128 2 -233 4 -234 3 -2 -1 24
-109 56 -241 72 -290 112 -476 106 -483 -3 -2 -40 1 -83 7 -42 6 -133 18 -202
28 l-126 16 -13 82 c-12 76 -64 322 -131 621 -31 137 -78 372 -104 516 -9 47
-33 155 -54 241 l-39 157 26 4 c32 5 334 -4 341 -10z m-3664 -10 c-10 -35 -88
-403 -156 -739 -38 -187 -72 -349 -76 -358 -6 -16 0 -17 62 -12 38 4 155 11
259 16 105 6 205 13 224 17 34 6 34 6 29 -28 -3 -19 -16 -107 -28 -195 l-23
-162 -86 -6 c-47 -4 -275 -25 -505 -47 -230 -21 -420 -38 -422 -36 -8 8 147
760 242 1179 41 180 74 339 74 352 l0 25 158 4 c86 1 179 4 205 5 42 2 48 0
43 -15z m1473 -15 c85 -216 317 -879 378 -1083 34 -114 93 -341 93 -357 0 -4
-62 -5 -137 -2 -76 3 -169 6 -208 7 l-70 2 -23 140 c-13 77 -29 144 -35 148
-7 5 -45 6 -86 3 -41 -3 -147 -6 -236 -6 l-162 0 -24 -142 -24 -143 -220 -7
c-120 -4 -220 -6 -221 -5 -3 3 65 254 120 442 82 280 196 634 269 838 l72 197
250 0 251 0 13 -32z m1590 -52 l85 -85 12 -118 c6 -65 10 -119 9 -121 -2 -2
-93 0 -204 4 l-201 7 0 38 c0 21 -3 40 -7 42 -5 3 -99 8 -210 12 l-202 7 5
-68 c3 -38 7 -78 9 -89 4 -17 61 -39 337 -132 183 -61 380 -130 438 -152 l106
-41 13 -73 c7 -39 32 -172 57 -295 24 -122 44 -232 44 -245 0 -17 -25 -38
-112 -95 -94 -61 -116 -72 -142 -67 -48 8 -533 54 -643 60 -181 11 -178 10
-252 78 -36 34 -87 80 -113 102 l-47 40 -2 80 c0 44 -1 109 0 145 l1 66 38 -3
c20 -1 110 -8 200 -14 l162 -12 0 -63 c0 -51 3 -64 18 -68 21 -7 392 -46 434
-46 l31 0 -7 96 c-4 53 -9 101 -12 107 -2 7 -30 22 -62 33 -31 12 -129 50
-217 84 -139 54 -254 97 -546 206 l-66 24 -21 188 c-12 103 -25 213 -29 245
l-6 59 74 74 73 74 435 0 434 0 86 -84z m-4464 -1866 c-16 -4 -52 -9 -80 -10
-41 -2 -45 -3 -25 -10 l25 -8 -26 -1 c-15 -1 -42 2 -60 6 -31 7 -28 8 36 19
39 6 90 11 115 11 40 1 42 0 15 -7z m5602 -16 c-3 -3 -12 -4 -19 -1 -8 3 -5 6
6 6 11 1 17 -2 13 -5z m-5624 -21 c-7 -2 -21 -2 -30 0 -10 3 -4 5 12 5 17 0
24 -2 18 -5z"/>
<path d="M5145 8724 c11 -8 36 -17 56 -20 35 -6 38 -9 59 -73 20 -59 60 -129
60 -104 0 5 -4 13 -9 19 -6 5 -23 42 -38 83 l-28 74 -55 18 c-67 22 -71 23
-45 3z"/>
<path d="M5568 8728 c-27 -6 -48 -14 -48 -18 0 -4 26 -1 58 6 31 8 89 14 127
13 l70 0 75 -70 c41 -39 120 -107 175 -152 220 -178 344 -286 433 -375 52 -51
96 -91 99 -89 11 12 -209 216 -396 367 -112 91 -243 202 -290 247 l-86 83 -85
-1 c-47 -1 -106 -6 -132 -11z"/>
<path d="M5326 8500 c13 -26 91 -125 110 -140 10 -8 -3 12 -29 45 -68 86 -90
112 -81 95z"/>
<path d="M4388 8393 c17 -2 47 -2 65 0 17 2 3 4 -33 4 -36 0 -50 -2 -32 -4z"/>
<path d="M4541 8385 c0 -5 17 -33 37 -62 20 -28 61 -86 90 -128 30 -43 106
-134 170 -204 137 -150 137 -151 127 -131 -9 15 -82 99 -185 214 -31 33 -71
83 -89 110 -19 26 -54 76 -80 111 -25 34 -51 70 -58 81 -6 10 -12 15 -12 9z"/>
<path d="M5524 8269 c28 -30 82 -88 122 -129 39 -41 113 -121 164 -177 51 -56
99 -104 107 -108 9 -3 -27 40 -78 95 -52 54 -146 155 -209 223 -63 68 -124
130 -135 137 -11 7 2 -11 29 -41z"/>
<path d="M4048 7833 c6 -2 18 -2 25 0 6 3 1 5 -13 5 -14 0 -19 -2 -12 -5z"/>
<path d="M4160 7724 c0 -5 12 -22 26 -39 l26 -30 -23 35 c-29 45 -29 45 -29
34z"/>
<path d="M5130 7687 c0 -2 15 -16 33 -33 l32 -29 -29 33 c-28 30 -36 37 -36
29z"/>
<path d="M4259 7572 c5 -10 18 -25 27 -33 11 -9 9 -2 -6 19 -26 35 -36 42 -21
14z"/>
<path d="M5313 7533 c21 -8 41 -12 45 -9 10 11 -20 26 -53 25 l-30 0 38 -16z"/>
<path d="M4320 7506 c0 -2 8 -10 18 -17 15 -13 16 -12 3 4 -13 16 -21 21 -21
13z"/>
<path d="M4374 7441 c20 -22 26 -25 26 -13 0 4 -10 13 -22 21 -23 14 -23 14
-4 -8z"/>
<path d="M4575 7260 c-3 -5 3 -10 14 -10 11 0 23 -4 26 -10 3 -5 11 -10 17
-10 6 0 -1 9 -15 20 -29 23 -33 24 -42 10z"/>
<path d="M4695 7190 c-3 -5 -1 -10 4 -10 6 0 11 5 11 10 0 6 -2 10 -4 10 -3 0
-8 -4 -11 -10z"/>
<path d="M4780 7141 c0 -5 5 -13 10 -16 6 -3 10 -2 10 4 0 5 -4 13 -10 16 -5
3 -10 2 -10 -4z"/>
<path d="M4300 7000 c0 -5 5 -10 11 -10 5 0 7 5 4 10 -3 6 -8 10 -11 10 -2 0
-4 -4 -4 -10z"/>
<path d="M2435 8281 c-22 -11 -35 -19 -30 -19 14 -1 93 36 80 37 -5 0 -28 -8
-50 -18z"/>
<path d="M2667 8228 c-34 -76 -63 -193 -49 -202 5 -3 9 8 10 25 1 37 38 155
58 187 8 12 10 22 5 22 -5 0 -15 -15 -24 -32z"/>
<path d="M2147 8173 c-37 -14 -66 -28 -63 -30 4 -4 136 44 145 52 9 10 -15 3
-82 -22z"/>
<path d="M2025 8125 c-25 -12 -26 -14 -5 -9 28 7 60 23 45 23 -5 0 -23 -6 -40
-14z"/>
<path d="M1960 8100 c-8 -5 -10 -10 -5 -10 6 0 17 5 25 10 8 5 11 10 5 10 -5
0 -17 -5 -25 -10z"/>
<path d="M1895 8075 c-25 -12 -26 -14 -5 -9 28 7 60 23 45 23 -5 0 -23 -6 -40
-14z"/>
<path d="M2106 8048 c12 -71 26 -128 32 -128 4 0 7 24 7 52 0 29 4 65 9 81 8
25 6 27 -23 27 -29 0 -30 -2 -25 -32z"/>
<path d="M1830 8050 c-8 -5 -10 -10 -5 -10 6 0 17 5 25 10 8 5 11 10 5 10 -5
0 -17 -5 -25 -10z"/>
<path d="M1780 8030 c-8 -5 -10 -10 -5 -10 6 0 17 5 25 10 8 5 11 10 5 10 -5
0 -17 -5 -25 -10z"/>
<path d="M1629 7918 c-25 -29 -49 -60 -53 -68 -9 -16 22 18 75 83 46 56 29 44
-22 -15z"/>
<path d="M3158 7935 c5 -11 23 -31 38 -45 32 -29 16 -2 -25 40 -18 19 -21 20
-13 5z"/>
<path d="M1451 7660 c-30 -49 -36 -85 -21 -150 2 -9 56 104 63 132 4 14 3 36
-1 49 -8 20 -11 18 -41 -31z"/>
<path d="M2443 7528 c-45 -40 -90 -89 -123 -137 -47 -68 -30 -66 36 4 62 66
139 165 129 165 -2 0 -21 -15 -42 -32z"/>
<path d="M2986 7325 c4 -8 11 -15 16 -15 6 0 5 6 -2 15 -7 8 -14 15 -16 15 -2
0 -1 -7 2 -15z"/>
<path d="M6476 7328 c-55 -41 -102 -61 -171 -74 l-70 -14 62 5 c54 4 95 16
154 46 9 4 34 11 55 15 22 3 50 13 64 20 24 12 23 13 -14 7 -22 -4 -41 -2 -45
5 -4 7 -16 3 -35 -10z"/>
<path d="M5765 7239 c-4 -6 -5 -12 -2 -15 2 -3 7 2 10 11 7 17 1 20 -8 4z"/>
<path d="M6395 5845 c-27 -13 -45 -23 -40 -24 6 0 33 11 60 24 28 13 46 23 40
24 -5 0 -32 -11 -60 -24z"/>
<path d="M6270 5795 c-14 -8 -20 -14 -15 -14 6 0 21 6 35 14 14 8 21 14 15 14
-5 0 -21 -6 -35 -14z"/>
<path d="M6210 5770 c-9 -6 -10 -10 -3 -10 6 0 15 5 18 10 8 12 4 12 -15 0z"/>
<path d="M6986 5473 c10 -40 14 -41 14 -5 0 18 -5 32 -10 32 -6 0 -8 -11 -4
-27z"/>
<path d="M5391 4804 c0 -11 3 -14 6 -6 3 7 2 16 -1 19 -3 4 -6 -2 -5 -13z"/>
<path d="M5376 4755 c-3 -9 -5 -29 -5 -43 1 -20 3 -17 9 13 8 43 7 57 -4 30z"/>
<path d="M4510 4825 c-12 -19 -20 -40 -18 -46 2 -5 13 10 26 35 26 55 22 60
-8 11z"/>
<path d="M1705 3904 c-44 -30 -123 -82 -175 -117 -68 -44 -89 -63 -75 -65 11
-2 37 -10 58 -18 20 -8 49 -14 62 -14 14 0 33 -4 43 -10 9 -5 51 -13 92 -19
l75 -9 53 57 c52 55 53 57 47 101 -4 24 -18 57 -31 73 -13 16 -24 32 -24 37 0
4 -8 6 -19 3 -10 -3 -22 0 -25 6 -4 6 0 11 8 11 9 0 16 5 16 10 0 20 -26 8
-105 -46z"/>
<path d="M6754 3778 c4 -35 9 -78 13 -95 l5 -33 104 0 105 0 -6 53 c-11 94
-17 122 -28 129 -7 4 -54 8 -106 8 l-94 0 7 -62z"/>
<path d="M4980 3740 l0 -110 113 0 112 0 -3 110 -3 110 -110 0 -109 0 0 -110z"/>
<path d="M1666 1855 c-3 -9 -6 -22 -5 -28 0 -7 5 -1 10 12 5 13 8 26 5 28 -2
2 -6 -3 -10 -12z"/>
<path d="M2700 1848 c-47 -4 -114 -12 -150 -16 l-65 -7 -23 -95 c-13 -52 -26
-98 -30 -101 -7 -7 -423 -72 -534 -84 -40 -5 -58 -3 -58 5 0 6 10 10 21 8 19
-3 24 6 40 67 28 103 31 126 13 83 -10 -21 -24 -38 -33 -38 -9 0 -26 -16 -39
-35 -12 -19 -19 -35 -15 -34 16 2 53 -14 53 -23 0 -5 -8 -4 -19 1 -15 9 -20 7
-24 -11 -4 -14 -11 -19 -23 -14 -10 4 -25 -1 -35 -10 -18 -16 -19 -16 -19 -1
0 10 -3 17 -7 18 -5 0 -16 2 -25 4 -10 2 -18 -2 -18 -8 0 -5 -3 -7 -7 -4 -3 4
-13 1 -21 -6 -13 -9 -14 -9 -8 1 5 8 -1 12 -19 12 -15 0 -24 -4 -20 -10 3 -5
1 -10 -4 -10 -6 0 -11 5 -11 11 0 5 -5 7 -10 4 -6 -4 -7 -12 -4 -18 5 -9 4 -9
-5 -1 -9 8 -4 37 20 123 17 62 29 114 26 117 -2 3 -14 -28 -25 -68 -50 -180
-73 -254 -82 -270 -8 -14 9 -37 92 -125 56 -59 103 -110 104 -111 1 -2 40 6
86 18 66 17 376 70 689 117 26 4 66 29 135 84 54 44 110 84 124 91 25 11 27
18 43 147 21 165 21 204 2 146 -7 -22 -13 -33 -14 -24 -1 12 -12 15 -53 13
-29 -2 -53 -3 -53 -4 0 -4 -44 -11 -74 -11 -19 -1 -46 -8 -60 -17 -18 -12 -26
-13 -28 -5 -3 9 -10 9 -26 -2 -22 -14 -22 -13 -19 24 l4 39 61 6 c34 3 106 8
159 12 54 3 95 10 92 15 -3 5 -8 8 -12 8 -4 -1 -45 -6 -92 -11z m-317 -255
c-7 -2 -19 -2 -25 0 -7 3 -2 5 12 5 14 0 19 -2 13 -5z m-76 -9 c-3 -3 -12 -4
-19 -1 -8 3 -5 6 6 6 11 1 17 -2 13 -5z m-44 -11 c-7 -2 -21 -2 -30 0 -10 3
-4 5 12 5 17 0 24 -2 18 -5z m-63 -9 c-38 -10 -169 -30 -164 -25 9 10 106 29
144 29 19 0 28 -2 20 -4z m-247 -31 c-7 -2 -19 -2 -25 0 -7 3 -2 5 12 5 14 0
19 -2 13 -5z"/>
<path d="M1941 1809 c-6 -18 -11 -39 -10 -48 1 -9 7 4 15 28 16 51 12 68 -5
20z"/>
<path d="M7778 2023 c12 -2 30 -2 40 0 9 3 -1 5 -23 4 -22 0 -30 -2 -17 -4z"/>
<path d="M7858 2023 c12 -2 32 -2 45 0 12 2 2 4 -23 4 -25 0 -35 -2 -22 -4z"/>
<path d="M7546 1898 c7 -35 18 -79 24 -98 8 -28 7 -37 -5 -46 -8 -6 -12 -14
-8 -17 3 -4 -1 -7 -10 -7 -9 0 -20 -7 -25 -15 -9 -17 -49 -28 -65 -18 -18 11
-127 12 -127 2 0 -6 -4 -8 -9 -5 -5 3 -14 35 -21 71 -7 36 -16 68 -21 71 -5 3
-7 -1 -4 -8 3 -7 14 -60 25 -118 11 -58 27 -139 35 -180 9 -41 21 -101 27
-132 12 -66 -8 -57 193 -84 66 -9 126 -20 133 -26 15 -13 16 9 2 61 -5 20 -30
124 -55 231 -56 242 -88 367 -96 375 -4 3 -1 -22 7 -57z m61 -270 c-3 -8 -6
-5 -6 6 -1 11 2 17 5 13 3 -3 4 -12 1 -19z"/>
<path d="M8451 1820 c0 -8 4 -24 9 -35 5 -13 9 -14 9 -5 0 8 -4 24 -9 35 -5
13 -9 14 -9 5z"/>
<path d="M8471 1755 c0 -5 15 -64 35 -130 56 -188 92 -325 84 -320 -3 2 -13
22 -20 45 -16 49 -21 53 -53 41 -18 -7 -27 -7 -31 2 -2 7 -5 2 -5 -10 -1 -22
-21 -34 -21 -13 0 5 -6 7 -14 4 -7 -3 -20 2 -29 10 -9 9 -20 16 -26 16 -6 0
-11 7 -11 15 0 18 -12 19 -28 3 -9 -9 -12 -9 -12 1 0 10 -3 11 -14 2 -16 -13
-37 -11 -48 4 -4 6 -8 1 -9 -10 0 -11 -9 3 -19 30 -10 28 -19 45 -19 38 -2
-19 48 -216 56 -224 5 -4 73 -15 153 -23 80 -9 158 -19 173 -22 25 -5 28 -3
23 12 -3 11 -28 96 -55 189 -59 199 -109 354 -110 340z m136 -497 c-3 -8 -6
-5 -6 6 -1 11 2 17 5 13 3 -3 4 -12 1 -19z"/>
<path d="M8221 1514 c0 -11 3 -14 6 -6 3 7 2 16 -1 19 -3 4 -6 -2 -5 -13z"/>
<path d="M3131 1924 c0 -11 3 -14 6 -6 3 7 2 16 -1 19 -3 4 -6 -2 -5 -13z"/>
<path d="M3103 1810 c-6 -30 -27 -131 -47 -225 -20 -93 -36 -175 -36 -181 0
-7 37 -7 123 2 229 23 452 44 577 54 69 5 150 13 181 16 l57 6 6 57 c4 31 12
95 18 144 6 48 9 89 6 92 -2 2 -53 0 -114 -5 -60 -5 -182 -12 -271 -16 -89 -4
-162 -10 -161 -13 0 -3 0 -13 -1 -21 -1 -13 -2 -13 -11 0 -5 8 -10 11 -10 5 0
-15 -193 -11 -198 4 -3 8 -9 6 -18 -6 -7 -10 -14 -13 -14 -7 0 8 -11 9 -34 4
-30 -7 -33 -5 -28 13 3 14 1 18 -6 13 -7 -4 -12 -2 -12 3 0 6 15 12 33 12 29
2 29 2 5 6 -24 4 -27 9 -30 51 l-3 47 -12 -55z m450 -77 c-7 -2 -19 -2 -25 0
-7 3 -2 5 12 5 14 0 19 -2 13 -5z m-386 -29 c-3 -3 -12 -4 -19 -1 -8 3 -5 6 6
6 11 1 17 -2 13 -5z"/>
<path d="M3411 1804 c0 -11 3 -14 6 -6 3 7 2 16 -1 19 -3 4 -6 -2 -5 -13z"/>
<path d="M4876 2506 c-22 -83 -59 -227 -83 -320 -24 -93 -42 -170 -41 -171 2
-2 79 0 171 3 l168 5 -7 31 c-18 88 -157 592 -164 599 -3 3 -23 -63 -44 -147z"/>
<path d="M4777 1963 c18 -2 50 -2 70 0 21 2 7 4 -32 4 -38 0 -55 -2 -38 -4z"/>
<path d="M4346 1838 c-35 -112 -95 -315 -103 -344 -4 -18 -1 -20 29 -17 18 3
100 7 183 11 l150 7 17 120 c23 154 27 161 92 169 90 12 478 3 491 -11 7 -7
16 -43 19 -80 12 -114 28 -194 40 -198 6 -2 86 -6 178 -9 l166 -6 -20 62 c-11
35 -38 124 -60 198 -22 74 -44 142 -50 150 -7 12 -8 11 -4 -5 7 -29 14 -82 9
-67 -3 6 -14 13 -26 13 -12 1 -38 2 -57 3 -19 0 -41 5 -49 10 -9 6 -12 5 -8
-1 4 -6 -4 -10 -18 -10 -15 0 -22 4 -18 11 3 6 -4 0 -17 -12 -13 -15 -30 -22
-41 -19 -11 3 -22 1 -25 -4 -7 -13 -214 -12 -214 1 0 6 11 8 24 6 14 -2 26 1
29 7 6 17 -48 14 -68 -3 -14 -12 -18 -11 -26 1 -7 11 -9 11 -9 -3 0 -16 -14
-18 -146 -18 -128 0 -149 2 -161 18 -8 9 -12 12 -9 5 4 -6 0 -18 -8 -26 -8 -8
-12 -18 -8 -23 4 -5 -1 -2 -10 5 -10 7 -15 17 -12 22 3 5 1 9 -5 9 -5 0 -12
-4 -15 -9 -9 -14 -56 -20 -56 -7 0 8 -2 8 -8 0 -10 -16 -42 -13 -42 4 0 12 -2
12 -17 1 -14 -12 -16 -12 -8 0 6 11 3 13 -13 9 -12 -4 -22 -2 -22 4 0 6 -11 3
-25 -6 -14 -9 -25 -13 -25 -9 0 5 -5 1 -10 -7 -15 -23 -13 3 6 66 27 95 10 79
-20 -18z"/>
<path d="M5086 1832 c-3 -4 4 -9 15 -9 23 -2 25 3 4 10 -8 4 -16 3 -19 -1z"/>
<path d="M6911 2014 c0 -11 3 -14 6 -6 3 7 2 16 -1 19 -3 4 -6 -2 -5 -13z"/>
<path d="M6922 1965 c0 -16 2 -22 5 -12 2 9 2 23 0 30 -3 6 -5 -1 -5 -18z"/>
<path d="M6937 1890 c13 -88 12 -92 -27 -96 -19 -2 -52 -6 -72 -8 -28 -3 -38
-1 -38 10 0 8 -4 14 -10 14 -5 0 -10 -5 -10 -10 0 -7 -11 -5 -27 3 -16 7 -39
13 -53 12 -20 0 -28 7 -37 35 -13 35 -13 35 -7 -15 5 -46 -7 -129 -20 -142
-14 -14 -490 40 -512 58 -8 6 -14 29 -14 50 0 45 -17 53 -23 12 l-4 -28 -2 28
c-1 25 -5 27 -43 28 -24 1 -52 3 -63 3 -11 1 -28 -2 -37 -7 -13 -6 -18 -3 -18
8 0 11 -8 16 -22 15 -55 -5 -109 1 -103 10 5 9 40 8 205 -4 44 -4 49 -3 25 4
-16 5 -80 12 -142 16 l-113 7 0 -113 0 -112 39 -37 c154 -144 177 -161 225
-161 65 0 415 -28 569 -45 71 -8 153 -15 183 -15 56 0 63 4 218 112 9 6 -33
261 -60 363 l-13 50 6 -45z"/>
<path d="M5312 9680 c0 -19 2 -27 5 -17 2 9 2 25 0 35 -3 9 -5 1 -5 -18z"/>
<path d="M5342 9675 c0 -16 2 -22 5 -12 2 9 2 23 0 30 -3 6 -5 -1 -5 -18z"/>
<path d="M6239 9654 c-48 -125 -113 -379 -102 -398 3 -4 -1 -12 -8 -17 -11 -7
-12 -12 -1 -29 7 -12 10 -32 6 -48 -4 -15 -4 -25 -1 -22 17 16 133 528 121
539 -2 2 -8 -9 -15 -25z"/>
<path d="M5302 9620 c0 -14 2 -19 5 -12 2 6 2 18 0 25 -3 6 -5 1 -5 -13z"/>
<path d="M5331 9614 c0 -11 3 -14 6 -6 3 7 2 16 -1 19 -3 4 -6 -2 -5 -13z"/>
<path d="M5315 9551 c-4 -17 -10 -29 -15 -26 -5 3 -7 -3 -5 -12 2 -10 4 -29 5
-43 1 -14 8 4 16 39 8 35 12 66 10 68 -2 3 -7 -9 -11 -26z"/>
<path d="M7052 9498 c-14 -14 -16 -42 -3 -34 7 5 23 46 17 46 -1 0 -7 -5 -14
-12z"/>
<path d="M2820 9456 c0 -13 168 -326 239 -444 64 -106 191 -305 252 -394 21
-31 39 -61 39 -66 0 -6 4 -12 8 -14 5 -1 30 -32 56 -68 63 -88 194 -220 218
-220 11 0 16 -4 13 -10 -3 -5 -1 -10 4 -10 29 0 7 42 -132 250 -61 91 -195
275 -297 410 -226 296 -299 398 -356 499 -24 42 -44 72 -44 67z m355 -525
c165 -214 185 -241 315 -435 66 -98 120 -186 120 -195 0 -9 5 -22 12 -29 7 -7
9 -12 6 -12 -9 0 -142 140 -180 190 -80 106 -248 353 -248 365 0 3 -24 40 -53
83 -61 87 -153 239 -163 268 -7 20 5 4 191 -235z"/>
<path d="M7539 9428 c-13 -18 -40 -53 -60 -78 -40 -49 -299 -430 -319 -470
-26 -52 18 3 186 233 95 130 228 337 221 344 -3 2 -15 -11 -28 -29z"/>
<path d="M6615 9308 c-93 -159 -94 -161 -61 -123 l27 30 -21 -35 c-11 -19 -20
-48 -21 -65 l0 -30 -10 25 -11 25 -19 -37 c-21 -42 -23 -99 -2 -91 14 5 28 41
24 62 -1 7 2 10 7 7 6 -3 22 25 38 62 15 37 51 120 80 185 29 64 51 117 50
117 -2 0 -38 -60 -81 -132z"/>
<path d="M3782 9420 c0 -8 6 -31 13 -50 7 -19 13 -28 13 -20 0 8 -6 31 -13 50
-7 19 -13 28 -13 20z"/>
<path d="M7174 9330 c-27 -44 -77 -123 -111 -175 -34 -52 -89 -147 -121 -212
-33 -65 -72 -138 -86 -163 -14 -25 -26 -51 -26 -59 0 -32 127 169 242 384 41
77 94 175 118 218 23 43 40 80 37 83 -3 3 -27 -31 -53 -76z"/>
<path d="M3816 9300 c9 -51 53 -198 67 -227 l13 -24 14 26 c12 23 12 28 -4 43
-17 16 -18 16 -8 -4 6 -11 7 -26 2 -34 -6 -9 -15 8 -29 56 -42 142 -60 198
-55 164z"/>
<path d="M8392 9170 c0 -14 2 -19 5 -12 2 6 2 18 0 25 -3 6 -5 1 -5 -13z"/>
<path d="M8381 9124 c0 -11 3 -14 6 -6 3 7 2 16 -1 19 -3 4 -6 -2 -5 -13z"/>
<path d="M9775 9029 c-394 -317 -527 -428 -520 -439 3 -4 -3 -14 -12 -21 -12
-10 -14 -10 -9 -1 13 22 -8 12 -38 -18 -16 -16 -62 -55 -103 -87 -66 -52 -626
-607 -648 -643 -5 -8 9 -1 30 17 55 44 163 146 146 137 -9 -5 -12 -3 -7 5 4 6
12 9 17 6 8 -6 332 279 624 550 72 66 213 194 315 285 191 170 319 290 310
289 -3 0 -50 -36 -105 -80z m-775 -706 c-47 -43 -105 -97 -129 -120 -25 -24
-49 -43 -53 -43 -19 0 -5 20 39 56 25 21 58 52 72 68 40 45 102 101 111 101 5
0 12 3 16 8 4 4 12 7 18 7 5 0 -28 -35 -74 -77z m-200 -170 c0 -10 -62 -73
-73 -73 -4 0 7 18 25 40 31 37 48 49 48 33z"/>
<path d="M1680 9068 c0 -12 78 -90 82 -82 2 5 -15 26 -39 48 -24 21 -43 37
-43 34z"/>
<path d="M8361 9054 c0 -11 3 -14 6 -6 3 7 2 16 -1 19 -3 4 -6 -2 -5 -13z"/>
<path d="M578 9015 c18 -34 400 -404 547 -530 158 -136 125 -93 -85 110 -265
258 -480 452 -462 420z"/>
<path d="M1790 8966 c0 -2 8 -10 18 -17 15 -13 16 -12 3 4 -13 16 -21 21 -21
13z"/>
<path d="M3500 8960 c0 -23 53 -165 58 -152 3 11 -32 122 -49 152 -7 13 -8 13
-9 0z"/>
<path d="M7385 8873 c-28 -36 -59 -77 -70 -92 -11 -15 -70 -92 -131 -171 -148
-194 -255 -353 -283 -423 -13 -31 -27 -57 -31 -57 -4 0 -10 -24 -13 -52 -5
-48 -29 -198 -43 -273 -3 -17 21 18 53 80 189 355 255 475 333 610 89 153 242
437 237 441 -1 1 -25 -27 -52 -63z"/>
<path d="M1815 8910 c10 -11 20 -20 23 -20 3 0 -3 9 -13 20 -10 11 -20 20 -23
20 -3 0 3 -9 13 -20z"/>
<path d="M1840 8916 c0 -2 8 -10 18 -17 15 -13 16 -12 3 4 -13 16 -21 21 -21
13z"/>
<path d="M8614 8868 l-19 -23 23 19 c12 11 22 21 22 23 0 8 -8 2 -26 -19z"/>
<path d="M1898 8849 c18 -19 30 -38 27 -41 -3 -3 16 -23 42 -44 l48 -39 -32
40 c-17 22 -51 58 -75 80 -39 37 -40 37 -10 4z"/>
<path d="M6623 8772 c-45 -48 -85 -90 -89 -94 -4 -5 -4 -8 0 -8 5 0 39 30 77
67 38 36 72 63 75 60 4 -4 -7 -44 -24 -89 -28 -77 -52 -153 -52 -170 0 -4 20
-30 45 -58 25 -28 45 -46 45 -41 0 5 3 16 6 25 4 11 0 16 -15 16 -11 0 -27 10
-35 23 -18 28 -14 112 7 154 18 34 26 67 32 135 2 26 6 52 10 58 14 23 -4 6
-82 -78z"/>
<path d="M8560 8800 c-17 -22 -29 -40 -27 -40 3 0 20 18 37 40 17 22 29 40 27
40 -3 0 -20 -18 -37 -40z"/>
<path d="M6434 8739 c-7 -12 36 -52 46 -43 3 3 -3 10 -12 15 -10 5 -15 16 -12
24 7 18 -12 20 -22 4z"/>
<path d="M6766 8638 c-16 -46 -35 -95 -43 -110 -7 -16 -10 -28 -6 -28 11 0 86
196 81 210 -2 6 -16 -26 -32 -72z"/>
<path d="M1940 8526 c0 -2 8 -10 18 -17 15 -13 16 -12 3 4 -13 16 -21 21 -21
13z"/>
<path d="M8221 8454 c0 -11 3 -14 6 -6 3 7 2 16 -1 19 -3 4 -6 -2 -5 -13z"/>
<path d="M8525 8248 c-50 -51 -73 -77 -52 -58 21 19 40 34 43 33 2 -2 4 -1 4
2 0 3 13 17 30 31 27 23 76 84 68 84 -2 0 -44 -42 -93 -92z"/>
<path d="M457 8222 c122 -97 503 -338 503 -318 0 10 -162 116 -170 111 -5 -3
-12 0 -16 6 -5 8 -3 9 7 4 9 -5 11 -5 4 2 -16 16 -339 222 -361 229 -10 4 4
-11 33 -34z"/>
<path d="M8461 8156 c-18 -19 -39 -32 -46 -30 -7 3 -16 1 -20 -5 -3 -7 0 -8 9
-5 17 6 22 -11 7 -20 -5 -4 -28 -30 -51 -59 l-42 -52 42 45 c60 64 143 160
138 160 -2 0 -19 -15 -37 -34z"/>
<path d="M8350 8068 c-15 -21 -17 -28 -6 -19 16 13 41 51 33 51 -2 0 -14 -15
-27 -32z"/>
<path d="M6791 7714 c0 -11 3 -14 6 -6 3 7 2 16 -1 19 -3 4 -6 -2 -5 -13z"/>
<path d="M345 7390 c105 -123 599 -511 649 -510 11 1 -42 44 -56 46 -5 1 -13
2 -19 3 -5 0 -8 5 -5 10 4 5 -13 24 -36 42 -26 20 -35 24 -24 11 25 -28 12
-28 -25 1 -15 12 -49 38 -75 57 -91 69 -204 164 -199 168 3 3 23 -9 45 -27 22
-17 40 -28 40 -24 -1 4 -29 29 -63 54 -34 26 -105 79 -157 120 -52 40 -86 62
-75 49z m185 -145 c13 -14 21 -25 18 -25 -2 0 -15 11 -28 25 -13 14 -21 25
-18 25 2 0 15 -11 28 -25z m371 -292 c13 -15 12 -15 -8 -4 -24 12 -29 21 -14
21 5 0 15 -7 22 -17z"/>
<path d="M665 7140 c10 -11 20 -20 23 -20 3 0 -3 9 -13 20 -10 11 -20 20 -23
20 -3 0 3 -9 13 -20z"/>
<path d="M725 7097 c62 -56 77 -68 81 -64 2 2 -15 19 -39 37 -49 39 -72 53
-42 27z"/>
<path d="M9610 6878 c-223 -144 -343 -228 -324 -228 26 0 419 268 394 270 -3
0 -34 -19 -70 -42z"/>
<path d="M330 6815 c0 -4 257 -168 291 -184 23 -12 23 -12 4 4 -11 9 -51 35
-88 57 -38 22 -67 42 -64 44 2 3 34 -9 71 -26 114 -51 88 -32 -44 31 -135 65
-170 81 -170 74z"/>
<path d="M9865 6696 c-224 -134 -366 -216 -373 -216 -4 0 -45 -23 -92 -51 -91
-54 -427 -229 -440 -229 -5 0 -44 -16 -87 -36 -43 -20 -100 -45 -128 -56 -27
-11 -128 -55 -223 -99 -96 -44 -178 -79 -184 -77 -5 2 27 33 72 68 107 85 274
222 325 266 37 32 -91 -65 -192 -146 -122 -98 -200 -157 -216 -163 -11 -4 -15
-12 -11 -18 4 -7 3 -9 -4 -5 -6 3 -13 2 -17 -4 -3 -5 -17 -10 -30 -10 -13 0
-25 -5 -27 -11 -2 -5 -11 -11 -20 -12 -9 -2 -24 -9 -34 -17 -11 -8 -6 0 10 17
15 17 50 46 77 65 27 18 49 37 49 41 0 4 -40 -23 -90 -60 -50 -38 -88 -74 -85
-80 2 -8 -4 -13 -14 -13 -15 0 -114 -52 -206 -109 -19 -11 -19 -12 4 -5 17 4
21 3 16 -6 -4 -6 -18 -10 -31 -7 -14 2 -21 0 -17 -6 4 -6 0 -8 -10 -4 -19 7
-70 -16 -59 -27 4 -4 -6 -4 -22 0 -20 5 -27 4 -22 -4 4 -7 -8 -14 -31 -18 -35
-7 -36 -8 -13 -14 14 -3 27 -3 28 2 2 4 13 8 23 8 11 0 17 -4 14 -10 -11 -18
7 -10 26 11 12 14 24 19 38 14 11 -3 23 0 28 7 4 8 21 21 36 31 15 10 25 22
22 27 -4 6 -2 10 4 10 5 0 17 3 27 7 11 4 15 3 11 -4 -5 -7 0 -9 14 -6 16 4
17 8 7 14 -10 7 -9 9 4 9 9 0 18 5 20 10 2 6 30 18 63 26 33 9 67 22 75 29 8
7 26 16 40 20 14 4 62 27 107 50 46 24 143 62 215 85 73 23 149 50 168 61 19
10 71 30 115 44 44 15 109 45 145 69 36 23 73 45 83 49 9 3 17 11 17 17 0 6 5
8 10 5 6 -3 10 -2 10 3 0 6 14 15 31 21 51 17 20 -10 -100 -91 -58 -39 -121
-88 -140 -110 -18 -21 -47 -46 -63 -54 -17 -9 -26 -19 -21 -23 6 -3 -20 -38
-59 -81 -39 -41 -59 -60 -44 -42 27 34 43 78 33 89 -4 3 -22 -4 -42 -16 -20
-11 -44 -21 -55 -21 -10 0 -76 -22 -147 -49 -70 -27 -153 -54 -183 -60 -130
-25 -190 -41 -231 -59 -24 -11 -64 -25 -88 -32 -23 -6 -41 -13 -38 -16 5 -6
108 19 166 40 24 9 47 14 51 11 5 -3 11 -1 15 5 3 5 13 10 21 10 13 0 13 -3 0
-22 -26 -37 -18 -44 14 -13 16 15 27 31 25 35 -5 8 68 32 82 28 5 -2 77 23
161 56 122 47 155 56 166 46 13 -10 9 -21 -28 -78 -149 -229 -176 -274 -171
-283 4 -5 0 -9 -8 -9 -8 0 -17 -7 -21 -15 -13 -36 47 20 365 338 308 308 344
341 466 423 223 150 277 186 429 284 277 179 390 266 189 146z m-365 -241 c0
-2 -9 -9 -20 -15 -12 -6 -20 -7 -20 -1 0 5 8 12 18 14 9 3 18 5 20 6 1 0 2 -1
2 -4z m-50 -25 c0 -5 -3 -10 -7 -10 -5 0 -24 -10 -43 -22 -34 -21 -69 -34 -55
-20 11 12 90 61 98 61 4 1 7 -3 7 -9z m-740 -520 c0 -5 -5 -10 -11 -10 -5 0
-7 5 -4 10 3 6 8 10 11 10 2 0 4 -4 4 -10z"/>
<path d="M8729 6693 c-40 -49 -42 -53 -25 -53 9 0 16 8 16 21 0 11 4 17 10 14
5 -3 18 -1 27 4 11 6 13 11 5 11 -7 0 -10 5 -7 10 11 17 -11 11 -26 -7z"/>
<path d="M9188 6647 c-70 -44 -95 -64 -65 -54 30 11 19 0 -48 -47 -35 -26 -67
-51 -70 -56 -3 -5 40 24 97 65 177 128 222 176 86 92z"/>
<path d="M662 6665 c6 -7 170 -75 178 -75 10 1 -56 34 -114 57 -61 24 -73 27
-64 18z"/>
<path d="M8635 6560 c-43 -33 -75 -60 -71 -60 8 0 156 111 156 116 0 9 -10 2
-85 -56z"/>
<path d="M880 6570 c19 -11 40 -19 45 -19 6 0 -6 8 -25 19 -19 11 -39 19 -45
19 -5 0 6 -8 25 -19z"/>
<path d="M775 6545 c39 -24 55 -30 55 -20 0 6 -76 45 -87 45 -4 0 10 -12 32
-25z"/>
<path d="M9049 6553 c-13 -16 -12 -17 4 -4 16 13 21 21 13 21 -2 0 -10 -8 -17
-17z"/>
<path d="M8465 6490 c-3 -5 -1 -10 4 -10 6 0 11 5 11 10 0 6 -2 10 -4 10 -3 0
-8 -4 -11 -10z"/>
<path d="M8515 6470 c-3 -6 1 -7 9 -4 18 7 21 14 7 14 -6 0 -13 -4 -16 -10z"/>
<path d="M8919 6427 c-66 -56 -121 -112 -68 -72 39 30 144 125 138 125 -3 0
-34 -24 -70 -53z"/>
<path d="M7142 6335 c-44 -36 -84 -70 -87 -75 -13 -21 6 -60 49 -105 35 -36
51 -45 78 -45 54 0 108 19 108 37 0 13 -3 14 -12 5 -28 -28 -34 -10 -11 38 19
41 23 59 17 100 -7 53 -21 69 -21 23 0 -15 -10 -34 -22 -44 -13 -10 -19 -23
-15 -33 11 -28 -5 -17 -26 17 -28 45 -25 71 11 112 48 54 20 42 -69 -30z m125
-95 c1 -11 -2 -20 -7 -20 -6 0 -7 17 -1 38 3 8 7 -1 8 -18z"/>
<path d="M8794 6368 l-19 -23 23 19 c21 18 27 26 19 26 -2 0 -12 -10 -23 -22z"/>
<path d="M8794 6318 l-19 -23 23 19 c12 11 22 21 22 23 0 8 -8 2 -26 -19z"/>
<path d="M7229 6283 c-13 -16 -12 -17 4 -4 16 13 21 21 13 21 -2 0 -10 -8 -17
-17z"/>
<path d="M8175 6230 c-3 -6 1 -7 9 -4 18 7 21 14 7 14 -6 0 -13 -4 -16 -10z"/>
<path d="M8558 6195 c-25 -18 -50 -39 -54 -46 -9 -15 81 49 98 68 16 20 7 15
-44 -22z"/>
<path d="M2280 6116 c-80 -28 -201 -71 -270 -95 -164 -57 -425 -169 -444 -190
-9 -10 -19 -31 -22 -48 -5 -26 -1 -37 20 -58 34 -34 36 -34 306 67 118 44 269
100 335 123 66 24 180 66 254 94 74 28 136 51 138 51 2 0 3 5 3 11 0 6 -9 8
-21 4 -13 -4 -19 -3 -16 2 7 11 -46 64 -80 82 -32 16 -44 14 -203 -43z"/>
<path d="M3060 6080 c0 -5 5 -10 11 -10 5 0 7 5 4 10 -3 6 -8 10 -11 10 -2 0
-4 -4 -4 -10z"/>
<path d="M3118 6069 c24 -27 29 -45 10 -33 -7 4 -8 3 -4 -5 4 -6 12 -9 17 -5
6 3 22 -5 36 -17 21 -20 23 -20 13 -4 -7 11 -32 36 -54 55 -25 21 -32 25 -18
9z"/>
<path d="M8365 6044 l-30 -26 33 22 c17 12 32 23 32 26 0 7 -4 5 -35 -22z"/>
<path d="M9745 6021 c-192 -89 -236 -112 -229 -122 4 -7 0 -9 -12 -6 -11 4
-46 -8 -84 -28 -36 -19 -61 -34 -57 -35 5 0 17 5 29 11 11 6 22 8 25 6 3 -3
-68 -42 -157 -87 -89 -45 -159 -84 -157 -87 5 -5 113 51 367 187 69 37 166 89
215 114 111 58 150 89 60 47z m-275 -151 c-19 -11 -39 -19 -45 -19 -5 0 6 8
25 19 19 11 40 19 45 19 6 0 -6 -8 -25 -19z"/>
<path d="M3060 5993 c0 -13 29 -38 35 -31 3 3 -4 13 -15 23 -11 10 -20 13 -20
8z"/>
<path d="M3203 5963 c-10 -26 -29 -43 -48 -43 -9 0 -13 -5 -10 -10 4 -6 9 -9
13 -7 4 2 21 -12 37 -32 l30 -35 -47 34 c-27 18 -50 31 -53 28 -8 -8 147 -116
176 -123 17 -4 30 -2 34 5 5 9 1 10 -12 6 -22 -7 -37 7 -46 42 -4 17 -2 22 8
18 19 -7 8 23 -17 47 -19 19 -25 43 -8 32 17 -11 11 11 -7 27 -33 27 -43 30
-50 11z"/>
<path d="M9310 5810 c-9 -6 -10 -10 -3 -10 6 0 15 5 18 10 8 12 4 12 -15 0z"/>
<path d="M9210 5760 c-9 -6 -10 -10 -3 -10 6 0 15 5 18 10 8 12 4 12 -15 0z"/>
<path d="M2810 5751 c-8 -5 -91 -36 -185 -69 -93 -33 -217 -79 -275 -102 -58
-23 -181 -70 -275 -105 -233 -86 -253 -96 -265 -126 -15 -35 -3 -77 26 -96 29
-19 70 -10 203 42 47 18 174 66 281 105 107 39 259 95 336 126 78 30 184 68
235 84 52 16 108 39 124 50 17 11 46 20 65 21 l35 1 -30 9 c-16 5 -43 10 -60
11 -16 2 -51 14 -78 27 -53 26 -115 36 -137 22z"/>
<path d="M9078 5694 c-39 -21 -35 -28 5 -8 37 19 44 24 31 24 -5 -1 -21 -8
-36 -16z"/>
<path d="M430 5687 c0 -10 360 -170 367 -163 2 2 -29 18 -69 34 -40 17 -72 35
-71 40 1 5 -15 14 -35 21 -20 7 -46 16 -57 21 -11 4 -40 16 -65 25 -25 10 -51
19 -57 22 -7 3 -13 3 -13 0z"/>
<path d="M7691 5664 c0 -11 3 -14 6 -6 3 7 2 16 -1 19 -3 4 -6 -2 -5 -13z"/>
<path d="M3392 5645 c0 -16 2 -22 5 -12 2 9 2 23 0 30 -3 6 -5 -1 -5 -18z"/>
<path d="M8995 5625 c-76 -37 -90 -41 -79 -23 4 6 3 9 -2 6 -157 -89 -195
-119 -98 -77 95 41 254 118 254 124 0 6 8 9 -75 -30z m-85 -39 c0 -2 -7 -7
-16 -10 -8 -3 -12 -2 -9 4 6 10 25 14 25 6z"/>
<path d="M8980 5640 c-9 -6 -10 -10 -3 -10 6 0 15 5 18 10 8 12 4 12 -15 0z"/>
<path d="M3253 5607 c-11 -12 -18 -29 -15 -37 4 -12 2 -13 -9 -2 -22 20 -32
14 -26 -17 4 -16 2 -31 -2 -33 -5 -2 15 -63 45 -136 30 -74 54 -142 54 -152 0
-10 5 -22 10 -25 6 -3 10 5 10 19 0 13 4 26 8 28 14 5 43 201 32 212 -6 6 -10
18 -10 28 0 9 -8 22 -19 27 -10 6 -21 26 -24 46 -3 19 -12 42 -20 50 -13 12
-17 11 -34 -8z"/>
<path d="M9785 5600 c-22 -11 -110 -46 -195 -79 -248 -95 -555 -230 -545 -239
2 -3 17 0 32 6 15 6 72 27 126 48 71 26 95 39 85 46 -9 7 -5 8 12 4 15 -3 42
3 65 15 22 10 31 16 20 13 -11 -3 -29 -8 -40 -10 -25 -5 51 31 85 40 l25 7
-25 -15 c-14 -9 -22 -15 -17 -16 8 0 364 158 412 184 42 22 8 19 -40 -4z
m-295 -140 c-8 -5 -19 -10 -25 -10 -5 0 -3 5 5 10 8 5 20 10 25 10 6 0 3 -5
-5 -10z m-220 -90 c-8 -5 -19 -10 -25 -10 -5 0 -3 5 5 10 8 5 20 10 25 10 6 0
3 -5 -5 -10z"/>
<path d="M3372 5550 c0 -14 2 -19 5 -12 2 6 2 18 0 25 -3 6 -5 1 -5 -13z"/>
<path d="M840 5502 c8 -5 26 -13 40 -16 17 -5 20 -4 10 2 -8 5 -26 13 -40 16
-17 5 -20 4 -10 -2z"/>
<path d="M921 5506 c10 -9 69 -36 69 -32 0 6 -55 36 -66 36 -4 0 -5 -2 -3 -4z"/>
<path d="M3371 5494 c0 -11 3 -14 6 -6 3 7 2 16 -1 19 -3 4 -6 -2 -5 -13z"/>
<path d="M8280 5460 c-9 -6 -10 -10 -3 -10 6 0 15 5 18 10 8 12 4 12 -15 0z"/>
<path d="M970 5450 c8 -5 20 -10 25 -10 6 0 3 5 -5 10 -8 5 -19 10 -25 10 -5
0 -3 -5 5 -10z"/>
<path d="M8310 5456 c0 -2 7 -11 15 -20 13 -13 13 -16 0 -30 -14 -13 -13 -16
7 -30 12 -9 33 -16 45 -16 15 0 27 -9 35 -25 6 -14 15 -25 20 -25 4 0 7 -5 6
-11 -2 -6 11 -13 27 -16 17 -2 38 -14 47 -26 10 -12 18 -16 18 -9 0 15 -140
158 -187 191 -18 12 -33 20 -33 17z"/>
<path d="M7990 5266 c68 -26 75 -27 40 -7 -19 11 -44 20 -55 20 -12 0 -7 -5
15 -13z"/>
<path d="M217 5229 c7 -7 15 -10 18 -7 3 3 -2 9 -12 12 -14 6 -15 5 -6 -5z"/>
<path d="M690 5230 c29 -19 293 -101 307 -96 8 3 12 2 9 -3 -3 -5 9 -11 27
-14 17 -4 54 -13 82 -22 71 -22 43 -2 -40 28 -77 28 -372 117 -389 117 -6 0
-4 -5 4 -10z"/>
<path d="M257 5209 c27 -25 448 -200 578 -239 80 -25 286 -72 292 -67 8 9
-268 116 -442 171 -99 32 -237 76 -308 100 -70 23 -124 39 -120 35z m397 -135
c77 -26 146 -50 151 -54 6 -4 35 -15 65 -25 60 -19 85 -35 56 -35 -43 0 -426
140 -426 155 0 8 9 6 154 -41z m323 -120 c-3 -3 -12 -4 -19 -1 -8 3 -5 6 6 6
11 1 17 -2 13 -5z"/>
<path d="M2559 5106 c-248 -88 -447 -166 -484 -190 -29 -19 -57 -79 -53 -113
4 -36 49 -48 109 -29 194 61 677 248 743 287 33 19 66 63 66 87 0 15 -76 42
-113 41 -17 0 -138 -38 -268 -83z"/>
<path d="M9345 5144 c-49 -13 -126 -33 -170 -44 -74 -18 -70 -19 33 -5 43 6
-65 -32 -270 -96 -76 -23 -136 -44 -134 -47 3 -2 56 12 118 32 62 19 156 49
208 65 114 35 332 110 339 116 9 10 -38 2 -124 -21z m-78 -40 c-3 -3 -12 -4
-19 -1 -8 3 -5 6 6 6 11 1 17 -2 13 -5z"/>
<path d="M7675 5110 c-71 -10 -146 -51 -208 -114 -71 -70 -113 -145 -138 -246
-20 -79 -20 -86 -5 -176 32 -191 127 -324 288 -403 78 -39 89 -41 173 -42 70
-1 102 4 144 20 138 55 231 165 276 329 24 86 17 252 -15 337 -73 192 -198
284 -405 298 -33 2 -83 1 -110 -3z m212 -250 c67 -40 104 -130 105 -254 1 -82
-14 -120 -71 -179 -73 -78 -159 -97 -247 -56 -81 38 -124 123 -124 244 0 168
88 264 240 265 47 0 74 -5 97 -20z"/>
<path d="M8220 5116 c0 -2 7 -9 15 -16 13 -11 14 -10 9 4 -5 14 -24 23 -24 12z"/>
<path d="M9053 5073 c9 -2 23 -2 30 0 6 3 -1 5 -18 5 -16 0 -22 -2 -12 -5z"/>
<path d="M8958 5053 c7 -3 16 -2 19 1 4 3 -2 6 -13 5 -11 0 -14 -3 -6 -6z"/>
<path d="M8908 5043 c7 -3 16 -2 19 1 4 3 -2 6 -13 5 -11 0 -14 -3 -6 -6z"/>
<path d="M8295 5010 c9 -16 18 -30 21 -30 2 0 -2 14 -11 30 -9 17 -18 30 -21
30 -2 0 2 -13 11 -30z"/>
<path d="M8835 5030 c-25 -11 1 -11 35 0 20 6 21 8 5 8 -11 0 -29 -3 -40 -8z"/>
<path d="M3156 5005 c-9 -26 -7 -32 5 -12 6 10 9 21 6 23 -2 3 -7 -2 -11 -11z"/>
<path d="M3102 4978 c-16 -16 -15 -25 3 -25 8 0 15 9 15 19 0 21 -2 22 -18 6z"/>
<path d="M3282 4960 c0 -19 2 -27 5 -17 2 9 2 25 0 35 -3 9 -5 1 -5 -18z"/>
<path d="M3193 4965 c0 -7 6 -11 14 -8 7 3 13 6 13 8 0 2 -6 5 -13 8 -8 3 -14
-1 -14 -8z"/>
<path d="M8331 4957 c-1 -4 6 -24 14 -44 17 -40 39 -133 50 -206 3 -27 9 -47
11 -44 11 10 -29 203 -51 251 -13 28 -24 47 -24 43z"/>
<path d="M3271 4894 c0 -11 3 -14 6 -6 3 7 2 16 -1 19 -3 4 -6 -2 -5 -13z"/>
<path d="M8261 4784 c0 -11 3 -14 6 -6 3 7 2 16 -1 19 -3 4 -6 -2 -5 -13z"/>
<path d="M8272 4740 c0 -14 2 -19 5 -12 2 6 2 18 0 25 -3 6 -5 1 -5 -13z"/>
<path d="M9560 4711 c-60 -11 -88 -20 -75 -24 11 -3 0 -4 -25 -2 -34 3 -39 2
-20 -4 l25 -9 -25 -2 c-14 -1 -20 -4 -13 -6 10 -5 243 53 252 62 6 6 -14 3
-119 -15z"/>
<path d="M3695 4682 c14 -12 96 -34 103 -28 3 3 1 6 -4 6 -5 0 -31 7 -59 15
-27 9 -45 12 -40 7z"/>
<path d="M9378 4673 c6 -2 18 -2 25 0 6 3 1 5 -13 5 -14 0 -19 -2 -12 -5z"/>
<path d="M9328 4663 c7 -3 16 -2 19 1 4 3 -2 6 -13 5 -11 0 -14 -3 -6 -6z"/>
<path d="M3590 4655 c0 -8 73 -36 78 -30 3 3 3 5 0 5 -3 0 -22 7 -42 15 -20 8
-36 13 -36 10z"/>
<path d="M9368 4653 c6 -2 18 -2 25 0 6 3 1 5 -13 5 -14 0 -19 -2 -12 -5z"/>
<path d="M9328 4643 c7 -3 16 -2 19 1 4 3 -2 6 -13 5 -11 0 -14 -3 -6 -6z"/>
<path d="M9188 4633 c6 -2 18 -2 25 0 6 3 1 5 -13 5 -14 0 -19 -2 -12 -5z"/>
<path d="M3600 4480 c-19 -11 -30 -19 -25 -19 6 0 26 8 45 19 19 11 31 19 25
19 -5 0 -26 -8 -45 -19z"/>
<path d="M8391 4464 c0 -11 3 -14 6 -6 3 7 2 16 -1 19 -3 4 -6 -2 -5 -13z"/>
<path d="M8841 4476 c15 -15 110 -44 129 -39 17 5 6 10 -46 24 -72 19 -90 22
-83 15z"/>
<path d="M410 4457 c0 -19 424 -109 498 -106 15 0 -31 12 -103 24 -175 32
-182 34 -95 29 105 -5 79 1 -95 26 -82 11 -162 23 -177 26 -16 3 -28 3 -28 1z
m217 -43 c-3 -3 -12 -4 -19 -1 -8 3 -5 6 6 6 11 1 17 -2 13 -5z"/>
<path d="M9020 4430 c34 -11 60 -11 35 0 -11 5 -29 8 -40 8 -16 0 -15 -2 5 -8z"/>
<path d="M8980 4420 c8 -5 22 -9 30 -9 10 0 8 3 -5 9 -27 12 -43 12 -25 0z"/>
<path d="M9128 4403 c7 -3 16 -2 19 1 4 3 -2 6 -13 5 -11 0 -14 -3 -6 -6z"/>
<path d="M879 4380 c52 -11 97 -18 99 -16 5 5 -81 23 -143 30 -27 3 -8 -3 44
-14z"/>
<path d="M9220 4375 c19 -7 42 -13 50 -13 8 0 -1 6 -20 13 -19 7 -42 13 -50
13 -8 0 1 -6 20 -13z"/>
<path d="M9159 4364 c25 -8 61 -16 80 -19 20 -3 5 4 -34 15 -79 22 -113 25
-46 4z"/>
<path d="M970 4350 c-28 -6 -23 -7 30 -7 42 0 58 2 45 8 -23 9 -28 9 -75 -1z"/>
<path d="M9305 4350 c11 -5 27 -9 35 -9 9 0 8 4 -5 9 -11 5 -27 9 -35 9 -9 0
-8 -4 5 -9z"/>
<path d="M9308 4327 c19 -6 40 -6 52 -1 15 7 7 9 -32 10 -50 0 -51 0 -20 -9z"/>
<path d="M9387 4323 c-8 -7 104 -43 133 -43 19 0 -58 36 -97 44 -16 4 -32 3
-36 -1z"/>
<path d="M8170 4275 c-7 -9 -11 -17 -9 -20 3 -2 10 5 17 15 14 24 10 26 -8 5z"/>
<path d="M8109 4204 c-23 -25 -27 -33 -13 -26 18 9 61 62 51 62 -2 0 -19 -16
-38 -36z"/>
<path d="M8760 4226 c0 -14 50 -25 72 -16 23 9 23 9 -2 10 -14 0 -35 3 -47 6
-13 4 -23 3 -23 0z"/>
<path d="M8845 4200 c-13 -6 -15 -9 -5 -9 8 0 22 4 30 9 18 12 2 12 -25 0z"/>
<path d="M8880 4190 c-18 -12 -2 -12 25 0 13 6 15 9 5 9 -8 0 -22 -4 -30 -9z"/>
<path d="M8922 4168 c15 -5 34 -6 42 -1 10 6 1 9 -27 9 -38 1 -40 0 -15 -8z"/>
<path d="M8980 4163 c-8 -4 44 -24 115 -45 146 -45 220 -60 140 -30 -27 11
-81 31 -119 46 -40 16 -76 24 -88 20 -14 -4 -18 -2 -14 5 8 12 -9 13 -34 4z"/>
<path d="M7542 4130 c27 -17 54 -30 60 -30 7 0 -11 14 -41 30 -70 38 -80 38
-19 0z"/>
<path d="M8022 4138 c-18 -11 -31 -23 -28 -25 5 -5 76 35 76 43 0 8 -15 2 -48
-18z"/>
<path d="M7630 4090 c8 -5 20 -10 25 -10 6 0 3 5 -5 10 -8 5 -19 10 -25 10 -5
0 -3 -5 5 -10z"/>
<path d="M7690 4069 c32 -9 167 -9 198 0 13 3 -32 6 -100 7 -68 0 -112 -3 -98
-7z"/>
<path d="M725 3950 c-148 -39 -265 -78 -237 -79 27 -1 251 60 327 89 72 27 36
24 -90 -10z"/>
<path d="M8835 3958 c56 -40 399 -158 662 -228 122 -32 187 -37 102 -8 -445
154 -548 187 -764 244 l-20 6 20 -14z m326 -106 c-7 -2 -18 1 -23 6 -8 8 -4 9
13 5 13 -4 18 -8 10 -11z"/>
<path d="M8420 3770 c8 -5 20 -10 25 -10 6 0 3 5 -5 10 -8 5 -19 10 -25 10 -5
0 -3 -5 5 -10z"/>
<path d="M8198 3683 c7 -3 16 -2 19 1 4 3 -2 6 -13 5 -11 0 -14 -3 -6 -6z"/>
<path d="M7900 3540 c0 -4 14 -14 30 -22 17 -7 30 -17 30 -22 0 -4 7 -5 16 -2
8 3 13 2 10 -3 -3 -4 14 -18 37 -31 23 -13 94 -57 157 -98 118 -78 456 -262
660 -359 179 -86 420 -192 420 -184 0 6 -33 26 -280 169 -361 208 -775 426
-791 416 -7 -4 -9 -3 -5 4 7 11 -160 96 -174 87 -4 -3 -10 1 -13 9 -6 15 -97
49 -97 36z m151 -66 c17 -8 29 -18 26 -20 -6 -6 -67 23 -67 31 0 8 10 6 41
-11z m76 -44 c14 -11 30 -17 37 -13 6 3 8 3 4 -2 -4 -4 -2 -15 5 -24 6 -8 -9
0 -35 18 -27 17 -48 34 -48 36 0 10 12 4 37 -15z m108 -70 c3 -6 -1 -7 -9 -4
-18 7 -21 14 -7 14 6 0 13 -4 16 -10z m88 -28 c26 -12 47 -24 47 -27 0 -7 -94
35 -105 47 -7 7 -7 9 0 6 6 -3 31 -14 58 -26z"/>
<path d="M2000 3440 c0 -5 9 -10 21 -10 11 0 17 5 14 10 -3 6 -13 10 -21 10
-8 0 -14 -4 -14 -10z"/>
<path d="M9022 3397 c131 -63 133 -64 277 -123 74 -30 136 -52 139 -49 9 9
-469 217 -495 214 -4 0 31 -19 79 -42z"/>
<path d="M1545 3305 c-46 -10 -48 -12 -21 -17 28 -6 97 15 80 24 -5 2 -31 -1
-59 -7z"/>
<path d="M1458 3283 c6 -2 18 -2 25 0 6 3 1 5 -13 5 -14 0 -19 -2 -12 -5z"/>
<path d="M1235 3231 c-188 -50 -327 -92 -321 -98 2 -2 56 12 121 32 64 19 181
51 258 71 133 33 170 45 136 43 -8 0 -95 -22 -194 -48z"/>
<path d="M1385 3239 c-185 -59 -403 -124 -590 -175 -93 -26 -177 -49 -185 -51
-8 -3 -4 3 10 12 l25 16 -25 -7 c-35 -9 -118 -53 -102 -54 49 -1 712 190 952
276 103 36 47 26 -85 -17z"/>
<path d="M1973 3233 c-89 -62 -141 -103 -128 -103 12 0 36 15 133 87 64 48 80
63 68 63 -2 0 -35 -21 -73 -47z"/>
<path d="M760 3085 c-123 -47 -136 -57 -30 -25 60 19 78 26 150 58 14 6 18 11
10 11 -8 0 -67 -20 -130 -44z"/>
<path d="M1260 2820 c-74 -49 -136 -96 -138 -105 -2 -8 -8 -15 -13 -15 -6 0
-7 5 -3 11 9 15 -13 2 -116 -70 -47 -32 -84 -63 -83 -69 2 -6 -3 -9 -10 -6 -7
2 -49 -23 -94 -56 -73 -53 -103 -80 -89 -80 14 0 215 134 211 140 -3 5 0 12 6
16 8 4 9 3 5 -4 -4 -7 -4 -12 -1 -12 12 0 409 281 440 311 16 16 27 29 25 28
-3 0 -66 -40 -140 -89z m-85 -75 c-16 -14 -34 -25 -40 -25 -9 0 55 49 65 49 3
0 -8 -11 -25 -24z m-85 -59 c-19 -18 -138 -92 -125 -78 17 18 119 90 130 91 5
1 3 -5 -5 -13z"/>
<path d="M9220 2776 c0 -3 241 -149 295 -178 47 -26 -9 22 -63 54 -31 18 -68
40 -82 48 -117 70 -150 87 -150 76z"/>
<path d="M1345 2597 c-221 -165 -480 -377 -461 -377 4 0 39 24 77 53 39 28
111 83 162 121 151 114 392 315 377 316 -3 0 -73 -51 -155 -113z"/>
<path d="M8727 2644 c151 -127 169 -141 288 -231 249 -187 400 -293 419 -293
19 0 -374 304 -614 474 -30 22 -78 57 -106 78 -81 60 -73 44 13 -28z"/>
<path d="M1348 2363 c-25 -21 -95 -76 -154 -123 -60 -47 -143 -114 -184 -150
-42 -36 -165 -136 -273 -223 -108 -86 -199 -163 -204 -169 -15 -25 227 153
421 311 187 152 419 347 440 370 30 33 5 24 -46 -16z"/>
<path d="M8830 2067 c0 -14 574 -524 608 -540 42 -20 -335 326 -498 458 -110
89 -110 88 -110 82z"/>
<path d="M962 1316 c-206 -188 -332 -311 -297 -290 31 18 218 181 333 289 64
59 129 135 118 135 -4 0 -73 -60 -154 -134z"/>
<path d="M5958 725 c6 -11 58 -69 117 -130 86 -89 98 -98 61 -50 -49 66 -195
212 -178 180z"/>
<path d="M3636 609 c-37 -84 -42 -110 -11 -63 18 28 57 135 52 141 -2 2 -21
-33 -41 -78z"/>
</g>
</svg>
